<svg width="24" height="24" viewBox="0 0 24 24" fill="none" xmlns="http://www.w3.org/2000/svg">
<path fill-rule="evenodd" clip-rule="evenodd" d="M14.125 3.74993C14.125 3.47379 14.3489 3.24996 14.6251 3.25L20.2493 3.25075C20.5254 3.25079 20.7492 3.47459 20.7493 3.75068L20.75 9.37493C20.75 9.65108 20.5262 9.87496 20.2501 9.875C19.9739 9.87504 19.75 9.65121 19.75 9.37507L19.7494 4.9577L13.8509 10.8562C13.6556 11.0515 13.339 11.0515 13.1438 10.8562C12.9485 10.661 12.9485 10.3444 13.1438 10.1491L19.0423 4.25059L14.6249 4.25C14.3488 4.24996 14.125 4.02608 14.125 3.74993ZM4.5 7.25C4.4337 7.25 4.37011 7.27634 4.32322 7.32322C4.27634 7.37011 4.25 7.4337 4.25 7.5V19.5C4.25 19.5663 4.27634 19.6299 4.32322 19.6768C4.37011 19.7237 4.4337 19.75 4.5 19.75H16.5C16.5663 19.75 16.6299 19.7237 16.6768 19.6768C16.7237 19.6299 16.75 19.5663 16.75 19.5V13.5C16.75 13.2239 16.9739 13 17.25 13C17.5261 13 17.75 13.2239 17.75 13.5V19.5C17.75 19.8315 17.6183 20.1495 17.3839 20.3839C17.1495 20.6183 16.8315 20.75 16.5 20.75H4.5C4.16848 20.75 3.85054 20.6183 3.61612 20.3839C3.3817 20.1495 3.25 19.8315 3.25 19.5V7.5C3.25 7.16848 3.3817 6.85054 3.61612 6.61612C3.85054 6.3817 4.16848 6.25 4.5 6.25H10.5C10.7761 6.25 11 6.47386 11 6.75C11 7.02614 10.7761 7.25 10.5 7.25H4.5Z" fill="#FCFCFE"/>
</svg>
