<svg width="24" height="24" viewBox="0 0 24 24" fill="none" xmlns="http://www.w3.org/2000/svg">
<path fill-rule="evenodd" clip-rule="evenodd" d="M18.1872 7L5.81296 7L4.77601 19.5174C4.72773 20.1003 5.18775 20.6 5.7726 20.6H18.2275C18.8124 20.6 19.2724 20.1003 19.2241 19.5174L18.1872 7ZM5.81296 6C5.29268 6 4.85933 6.39894 4.81637 6.91744L3.77942 19.4349C3.68286 20.6006 4.60291 21.6 5.7726 21.6H18.2275C19.3972 21.6 20.3173 20.6006 20.2207 19.4349L19.1838 6.91744C19.1408 6.39894 18.7074 6 18.1872 6H5.81296Z" fill="white"/>
<path fill-rule="evenodd" clip-rule="evenodd" d="M9.29259 4.0564C8.79191 4.70212 8.62207 5.48791 8.62207 6.00002V9.00002C8.62207 9.27616 8.39821 9.50002 8.12207 9.50002C7.84593 9.50002 7.62207 9.27616 7.62207 9.00002V6.00002C7.62207 5.31213 7.83992 4.29793 8.50232 3.44364C9.18257 2.56633 10.3003 1.90002 11.999 1.90002C13.6976 1.90002 14.8154 2.56633 15.4956 3.44364C16.158 4.29793 16.3759 5.31213 16.3759 6.00002V9.00002C16.3759 9.27616 16.152 9.50002 15.8759 9.50002C15.5997 9.50002 15.3759 9.27616 15.3759 9.00002V6.00002C15.3759 5.48791 15.206 4.70212 14.7054 4.0564C14.2225 3.43372 13.4018 2.90002 11.999 2.90002C10.5961 2.90002 9.7754 3.43372 9.29259 4.0564Z" fill="white"/>
</svg>
