<svg width="24" height="24" viewBox="0 0 24 24" fill="none" xmlns="http://www.w3.org/2000/svg">
<path fill-rule="evenodd" clip-rule="evenodd" d="M7.57966 4.0465C6.49638 5.14824 5.6721 6.93585 4.87192 9.70631C4.42033 11.2698 3.88418 13.1377 3.59423 14.6798C3.44863 15.4541 3.37141 16.1152 3.38873 16.6011C3.39741 16.8447 3.42918 17.0152 3.47007 17.1241C3.498 17.1985 3.52164 17.2231 3.52842 17.2288C4.27384 17.5991 5.01343 17.6951 8.74169 17.7121C9.64436 17.7162 10.7162 17.7162 12.0003 17.7162C13.2841 17.7162 14.3565 17.7162 15.259 17.7121C18.9894 17.6951 19.7268 17.599 20.4729 17.228C20.4587 17.235 20.4899 17.2303 20.5298 17.124C20.5708 17.0151 20.6026 16.8446 20.6113 16.601C20.6287 16.1151 20.5517 15.454 20.4062 14.6796C20.1165 13.1376 19.5806 11.2697 19.1287 9.7064C18.328 6.93588 17.5037 5.14824 16.4206 4.04648C15.3672 2.97502 14.0141 2.5 12.0003 2.5C9.98651 2.5 8.63318 2.97503 7.57966 4.0465ZM6.8666 3.34539C8.1649 2.02497 9.81193 1.5 12.0003 1.5C14.1887 1.5 15.8355 2.02498 17.1337 3.34541C18.402 4.63554 19.281 6.63169 20.0894 9.42874C20.5381 10.9812 21.0889 12.897 21.389 14.495C21.5385 15.2906 21.6321 16.0386 21.6107 16.6368C21.6 16.9352 21.5599 17.2256 21.4659 17.4757C21.3709 17.7286 21.2041 17.9812 20.9182 18.1234C19.9586 18.6006 18.9911 18.6887 15.6923 18.7098C15.5934 19.3205 15.4197 20.1242 15.0155 20.8284C14.7566 21.2796 14.3966 21.7031 13.8918 22.0121C13.3851 22.3223 12.7604 22.5 12.0003 22.5C11.2402 22.5 10.6236 22.3222 10.1277 22.0081C9.63418 21.6953 9.29262 21.268 9.04772 20.8189C8.80469 20.3731 8.65097 19.8949 8.53651 19.4654C8.48286 19.264 8.43643 19.0677 8.39425 18.8893L8.38554 18.8525C8.37391 18.8034 8.36264 18.7559 8.35161 18.71C5.01763 18.6895 4.04521 18.6026 3.08155 18.1234C2.79561 17.9811 2.62882 17.7285 2.53389 17.4756C2.43995 17.2255 2.4 16.9351 2.38936 16.6367C2.36805 16.0385 2.46186 15.2906 2.61145 14.495C2.91189 12.8971 3.46282 10.9812 3.91119 9.42883C4.71906 6.63172 5.59806 4.63555 6.8666 3.34539ZM9.38045 18.7143C9.41883 18.8763 9.45823 19.0406 9.50279 19.2079C9.60912 19.6069 9.73847 19.9968 9.9257 20.3402C10.1111 20.6802 10.347 20.9631 10.663 21.1633C10.9767 21.3621 11.4018 21.5 12.0003 21.5C12.599 21.5 13.0386 21.362 13.3697 21.1593C13.7028 20.9553 13.9543 20.6686 14.1482 20.3307C14.4364 19.8285 14.5829 19.2433 14.6768 18.7142C13.903 18.7162 13.018 18.7162 12.0021 18.7162H11.9985C11.0073 18.7162 10.1408 18.7162 9.38045 18.7143Z" fill="#FCFCFE"/>
</svg>
