<svg width="24" height="24" viewBox="0 0 24 24" fill="none" xmlns="http://www.w3.org/2000/svg">
<path fill-rule="evenodd" clip-rule="evenodd" d="M3.15039 6.37502C3.15039 6.04365 3.41902 5.77502 3.75039 5.77502H20.2504C20.5818 5.77502 20.8504 6.04365 20.8504 6.37502C20.8504 6.7064 20.5818 6.97502 20.2504 6.97502H3.75039C3.41902 6.97502 3.15039 6.7064 3.15039 6.37502ZM3.15039 10.125C3.15039 9.79365 3.41902 9.52502 3.75039 9.52502H15.7504C16.0818 9.52502 16.3504 9.79365 16.3504 10.125C16.3504 10.4564 16.0818 10.725 15.7504 10.725H3.75039C3.41902 10.725 3.15039 10.4564 3.15039 10.125ZM3.15097 13.875C3.15097 13.5437 3.4196 13.275 3.75097 13.275H20.2504C20.5818 13.275 20.8504 13.5437 20.8504 13.875C20.8504 14.2064 20.5818 14.475 20.2504 14.475H3.75097C3.4196 14.475 3.15097 14.2064 3.15097 13.875ZM3.15097 17.625C3.15097 17.2937 3.4196 17.025 3.75097 17.025H15.7504C16.0818 17.025 16.3504 17.2937 16.3504 17.625C16.3504 17.9564 16.0818 18.225 15.7504 18.225H3.75097C3.4196 18.225 3.15097 17.9564 3.15097 17.625Z" fill="white"/>
</svg>
