<svg width="24" height="24" viewBox="0 0 24 24" fill="none" xmlns="http://www.w3.org/2000/svg">
<path fill-rule="evenodd" clip-rule="evenodd" d="M9.38735 3.51784C7.86836 3.42279 6.36691 3.88552 5.16495 4.81915C3.96298 5.75277 3.14319 7.09307 2.8595 8.58837C2.57581 10.0837 2.84775 11.6311 3.62424 12.9401C3.6944 13.0583 3.71275 13.2003 3.67497 13.3325L3.00894 15.6638L3.00893 15.6638C3.00587 15.6745 3.00573 15.6859 3.00853 15.6966C3.01132 15.7074 3.01695 15.7173 3.02483 15.7252C3.03271 15.733 3.04256 15.7387 3.05335 15.7415C3.06414 15.7443 3.07548 15.7441 3.0862 15.7411L3.08621 15.7411L5.41752 15.075C5.54974 15.0373 5.69169 15.0556 5.80996 15.1258C6.67754 15.6404 7.64988 15.9334 8.64235 15.9899C8.65252 15.9901 8.66265 15.9907 8.67273 15.9916C9.16774 16.0173 9.66755 15.9842 10.1617 15.8905C11.657 15.6068 12.9972 14.787 13.9309 13.585C14.8645 12.3831 15.3272 10.8816 15.2322 9.36262C15.1371 7.84362 14.4908 6.41158 13.4146 5.33539C12.3384 4.2592 10.9063 3.6129 9.38735 3.51784ZM8.27534 16.9639C7.30364 16.8667 6.35507 16.5733 5.48942 16.0945L3.36092 16.7026C3.36092 16.7026 3.36091 16.7026 3.36091 16.7026C3.17872 16.7546 2.98593 16.757 2.80251 16.7095C2.61909 16.662 2.45171 16.5663 2.31773 16.4323C2.18374 16.2983 2.08803 16.1309 2.0405 15.9475C1.99297 15.7641 1.99535 15.5713 2.04741 15.3891C2.04741 15.3891 2.04741 15.3891 2.04741 15.3891L2.65551 13.2606C1.83842 11.7835 1.56153 10.0649 1.87703 8.40197C2.20613 6.66732 3.15715 5.11248 4.55151 4.0294C5.94588 2.94633 7.68767 2.40952 9.44981 2.51979C11.212 2.63006 12.8732 3.37982 14.1217 4.62828C14.8146 5.32122 15.3539 6.14133 15.7155 7.03527C16.8465 7.1477 17.9369 7.5246 18.8977 8.13737C19.9485 8.80754 20.8088 9.73722 21.3957 10.8367C21.9826 11.9362 22.2762 13.1684 22.2482 14.4144C22.2218 15.5875 21.9112 16.7355 21.3445 17.7605L21.9526 19.8891C22.0047 20.0713 22.0071 20.2641 21.9595 20.4475C21.912 20.6309 21.8163 20.7983 21.6823 20.9323C21.5483 21.0663 21.3809 21.162 21.1975 21.2095C21.0141 21.257 20.8213 21.2546 20.6391 21.2026L18.5105 20.5945C17.6369 21.0774 16.6723 21.3753 15.6769 21.4684C14.6089 21.5684 13.532 21.4302 12.5238 21.0639C11.5156 20.6976 10.6012 20.1123 9.84643 19.3501C9.16897 18.6659 8.63527 17.8546 8.27534 16.9639ZM16.0508 8.08895C16.8699 8.22886 17.6553 8.5311 18.3599 8.98049C19.2658 9.55825 20.0075 10.3597 20.5135 11.3076C21.0194 12.2555 21.2726 13.3177 21.2484 14.3919C21.2243 15.4661 20.9237 16.5159 20.3757 17.4401C20.3056 17.5584 20.2872 17.7003 20.325 17.8325L20.9911 20.1638C20.9942 20.1745 20.9943 20.1859 20.9915 20.1966C20.9887 20.2074 20.9831 20.2173 20.9752 20.2252C20.9673 20.233 20.9575 20.2387 20.9467 20.2415C20.9359 20.2443 20.9245 20.2441 20.9138 20.2411L20.7765 20.7218L20.9138 20.2411L18.5825 19.575C18.4503 19.5373 18.3084 19.5556 18.1902 19.6257C17.3947 20.0973 16.5045 20.3866 15.5837 20.4728C14.6629 20.5589 13.7345 20.4398 12.8653 20.124C11.9961 19.8082 11.2077 19.3036 10.557 18.6464C10.0762 18.1609 9.67935 17.601 9.38096 16.9898C9.70397 16.9727 10.0271 16.9339 10.3481 16.873C12.0827 16.5439 13.6375 15.5928 14.7206 14.1985C15.8037 12.8041 16.3405 11.0623 16.2302 9.30016C16.2045 8.88963 16.1441 8.48458 16.0508 8.08895Z" fill="#FCFCFE"/>
</svg>
