<svg width="24" height="24" viewBox="0 0 24 24" fill="none" xmlns="http://www.w3.org/2000/svg">
<path fill-rule="evenodd" clip-rule="evenodd" d="M5.57613 5.57576C5.81044 5.34145 6.19034 5.34145 6.42465 5.57576L12.0004 11.1515L17.5761 5.57576C17.8104 5.34145 18.1903 5.34145 18.4247 5.57576C18.659 5.81007 18.659 6.18997 18.4247 6.42429L12.8489 12L18.4247 17.5758C18.659 17.8101 18.659 18.19 18.4247 18.4243C18.1903 18.6586 17.8104 18.6586 17.5761 18.4243L12.0004 12.8486L6.42465 18.4243C6.19034 18.6586 5.81044 18.6586 5.57613 18.4243C5.34181 18.19 5.34181 17.8101 5.57613 17.5758L11.1519 12L5.57613 6.42429C5.34181 6.18997 5.34181 5.81007 5.57613 5.57576Z" fill="white"/>
</svg>
