<svg width="24" height="24" viewBox="0 0 24 24" fill="none" xmlns="http://www.w3.org/2000/svg">
<path fill-rule="evenodd" clip-rule="evenodd" d="M5.31524 7.022C3.58779 7.81928 2.75 8.81994 2.75 9.75C2.75 10.6801 3.58779 11.6807 5.31524 12.478C7.00021 13.2557 9.36313 13.75 12 13.75C14.6369 13.75 16.9998 13.2557 18.6848 12.478C20.4122 11.6807 21.25 10.6801 21.25 9.75C21.25 8.81994 20.4122 7.81928 18.6848 7.022C16.9998 6.24432 14.6369 5.75 12 5.75C9.36313 5.75 7.00021 6.24432 5.31524 7.022ZM21.25 11.9473C20.6972 12.5115 19.951 12.995 19.1038 13.386C18.9098 13.4755 18.7083 13.5613 18.5 13.6432V17.085C18.6386 17.0239 18.7725 16.961 18.9014 16.8965C20.535 16.0797 21.25 15.0841 21.25 14.25V11.9473ZM18.1729 18.2919C18.5946 18.1394 18.9871 17.9717 19.3486 17.791C21.09 16.9203 22.25 15.6659 22.25 14.25V9.75C22.25 8.19477 20.9052 6.94543 19.1038 6.11404C17.26 5.26304 14.7479 4.75 12 4.75C9.25209 4.75 6.74001 5.26304 4.89618 6.11404C3.09482 6.94543 1.75 8.19477 1.75 9.75V14.25C1.75 15.6659 2.91 16.9203 4.65139 17.791C6.42488 18.6777 8.94329 19.25 12 19.25C14.4306 19.25 16.5209 18.8881 18.1669 18.294C18.1689 18.2933 18.1709 18.2926 18.1729 18.2919ZM17.5 17.4661V13.9896C16.0401 14.4333 14.3295 14.7026 12.5 14.7443V18.2446C14.4622 18.2021 16.1467 17.9103 17.5 17.4661ZM11.5 18.2446V14.7443C9.67052 14.7026 7.95988 14.4333 6.5 13.9896V17.4661C7.85332 17.9103 9.53782 18.2021 11.5 18.2446ZM5.5 17.085V13.6432C5.29166 13.5613 5.09022 13.4755 4.89618 13.386C4.04901 12.995 3.30282 12.5115 2.75 11.9473V14.25C2.75 15.0841 3.465 16.0797 5.09861 16.8965C5.22754 16.961 5.36137 17.0239 5.5 17.085Z" fill="#FCFCFE"/>
</svg>
