<svg width="24" height="24" viewBox="0 0 24 24" fill="none" xmlns="http://www.w3.org/2000/svg">
<path fill-rule="evenodd" clip-rule="evenodd" d="M14.2286 7.52145C14.4238 7.71671 14.4238 8.03329 14.2286 8.22855L5.97855 16.4786C5.78329 16.6738 5.46672 16.6738 5.27145 16.4786L1.14645 12.3537C0.951188 12.1585 0.951181 11.8419 1.14644 11.6466C1.3417 11.4514 1.65828 11.4514 1.85355 11.6466L5.62499 15.4179L13.5214 7.52145C13.7167 7.32618 14.0333 7.32618 14.2286 7.52145ZM22.8536 7.52145C23.0488 7.71671 23.0488 8.03329 22.8536 8.22855L14.6036 16.4786C14.4083 16.6738 14.0917 16.6738 13.8965 16.4786L11.7052 14.2874C11.51 14.0922 11.51 13.7756 11.7052 13.5803C11.9005 13.3851 12.2171 13.3851 12.4123 13.5803L14.25 15.4179L22.1464 7.52145C22.3417 7.32618 22.6583 7.32618 22.8536 7.52145Z" fill="#FCFCFE"/>
</svg>
