<svg width="24" height="24" viewBox="0 0 24 24" fill="none" xmlns="http://www.w3.org/2000/svg">
<path fill-rule="evenodd" clip-rule="evenodd" d="M13.1382 8.03256C13.3411 7.84526 13.6574 7.85792 13.8447 8.06083L17.1678 11.6608C17.3446 11.8524 17.3446 12.1476 17.1678 12.3391L13.8447 15.9391C13.6574 16.142 13.3411 16.1547 13.1382 15.9674C12.9353 15.7801 12.9226 15.4637 13.1099 15.2608L15.6584 12.5H2.40039C2.12425 12.5 1.90039 12.2761 1.90039 12C1.90039 11.7238 2.12425 11.5 2.40039 11.5H15.6584L13.1099 8.73911C12.9226 8.5362 12.9353 8.21987 13.1382 8.03256Z" fill="white"/>
<path fill-rule="evenodd" clip-rule="evenodd" d="M5.80078 4.09998C5.52464 4.09998 5.30078 4.32383 5.30078 4.59997V5.99998C5.30078 6.27612 5.07692 6.49998 4.80078 6.49998C4.52464 6.49998 4.30078 6.27612 4.30078 5.99998V4.59997C4.30078 3.77155 4.97235 3.09998 5.80078 3.09998H20.6008C21.4292 3.09998 22.1008 3.77155 22.1008 4.59998V19.4C22.1008 20.2284 21.4292 20.9 20.6008 20.9H5.80078C4.97236 20.9 4.30078 20.2284 4.30078 19.4V18C4.30078 17.7238 4.52464 17.5 4.80078 17.5C5.07692 17.5 5.30078 17.7238 5.30078 18V19.4C5.30078 19.6761 5.52464 19.9 5.80078 19.9H20.6008C20.8769 19.9 21.1008 19.6761 21.1008 19.4V4.59998C21.1008 4.32383 20.8769 4.09998 20.6008 4.09998H5.80078Z" fill="white"/>
</svg>
