<svg width="24" height="24" viewBox="0 0 24 24" fill="none" xmlns="http://www.w3.org/2000/svg">
<path fill-rule="evenodd" clip-rule="evenodd" d="M6.06251 8.03259C5.8596 7.84529 5.54327 7.85795 5.35597 8.06086L2.03289 11.6609C1.85609 11.8524 1.85609 12.1476 2.03289 12.3391L5.35597 15.9391C5.54327 16.142 5.8596 16.1547 6.06251 15.9674C6.26542 15.7801 6.27807 15.4638 6.09077 15.2609L3.54229 12.5H16.8003C17.0764 12.5 17.3003 12.2761 17.3003 12C17.3003 11.7239 17.0764 11.5 16.8003 11.5H3.54229L6.09077 8.73914C6.27807 8.53623 6.26542 8.2199 6.06251 8.03259Z" fill="#FCFCFE"/>
<path fill-rule="evenodd" clip-rule="evenodd" d="M13 4.50002C12.7239 4.50002 12.5 4.72388 12.5 5.00002V6.28574C12.5 6.56188 12.2761 6.78574 12 6.78574C11.7239 6.78574 11.5 6.56188 11.5 6.28574V5.00002C11.5 4.1716 12.1716 3.50002 13 3.50002H21C21.8284 3.50002 22.5 4.1716 22.5 5.00002V19C22.5 19.8285 21.8284 20.5 21 20.5H13C12.1716 20.5 11.5 19.8285 11.5 19V17.7143C11.5 17.4382 11.7239 17.2143 12 17.2143C12.2761 17.2143 12.5 17.4382 12.5 17.7143V19C12.5 19.2762 12.7239 19.5 13 19.5H21C21.2761 19.5 21.5 19.2762 21.5 19V5.00002C21.5 4.72388 21.2761 4.50002 21 4.50002H13Z" fill="#FCFCFE"/>
</svg>
