<svg width="24" height="24" viewBox="0 0 24 24" fill="none" xmlns="http://www.w3.org/2000/svg">
<path fill-rule="evenodd" clip-rule="evenodd" d="M3.58393 8.2711C5.33833 6.5165 8.08369 4.74927 12 4.74927C15.9163 4.74927 18.6617 6.5165 20.4161 8.2711C21.2918 9.14696 21.9237 10.0219 22.3372 10.6788C22.5442 11.0076 22.6972 11.2829 22.7994 11.4779C22.8505 11.5755 22.8889 11.653 22.915 11.7073C22.928 11.7344 22.938 11.7557 22.945 11.7708L22.9532 11.7887L22.9556 11.7941L22.9564 11.7958L22.9567 11.7965C22.9568 11.7967 22.9569 11.7969 22.5 12C22.9569 12.2031 22.9568 12.2033 22.9567 12.2036L22.9564 12.2042L22.9556 12.206L22.9532 12.2113L22.945 12.2292C22.938 12.2443 22.928 12.2656 22.915 12.2927C22.8889 12.347 22.8504 12.4245 22.7994 12.522C22.6972 12.717 22.5442 12.9922 22.3372 13.321C21.9236 13.9777 21.2918 14.8525 20.416 15.7282C18.6616 17.4824 15.9163 19.2493 12 19.2493C8.08373 19.2493 5.33838 17.4824 3.58397 15.7282C2.7082 14.8525 2.07638 13.9777 1.66283 13.321C1.45582 12.9922 1.30279 12.717 1.20065 12.522C1.14956 12.4245 1.11115 12.347 1.08503 12.2927C1.07197 12.2656 1.06198 12.2443 1.05501 12.2292L1.04681 12.2113L1.0444 12.206L1.04361 12.2042L1.04332 12.2036C1.04321 12.2033 1.0431 12.2031 1.5 12C1.04309 11.7969 1.04319 11.7967 1.0433 11.7965L1.04359 11.7958L1.04438 11.7941L1.04679 11.7887L1.05499 11.7708C1.06196 11.7557 1.07195 11.7344 1.08501 11.7073C1.11113 11.653 1.14954 11.5755 1.20063 11.4779C1.30277 11.2829 1.45579 11.0076 1.66281 10.6788C2.07635 10.0219 2.70817 9.14696 3.58393 8.2711ZM1.5 12L1.04309 11.7969C0.985632 11.9262 0.985638 12.0738 1.0431 12.2031L1.5 12ZM2.05637 12C2.06573 12.0182 2.07576 12.0376 2.08646 12.058C2.17768 12.2321 2.31762 12.4842 2.50904 12.7881C2.89237 13.3969 3.4793 14.2094 4.29103 15.0211C5.91162 16.6415 8.41627 18.2493 12 18.2493C15.5837 18.2493 18.0884 16.6415 19.709 15.0211C20.5207 14.2094 21.1076 13.3969 21.491 12.7881C21.6824 12.4842 21.8223 12.2321 21.9135 12.058C21.9242 12.0376 21.9343 12.0182 21.9436 12C21.9343 11.9817 21.9242 11.9624 21.9135 11.9419C21.8223 11.7677 21.6824 11.5156 21.4909 11.2116C21.1076 10.6027 20.5207 9.79 19.7089 8.97817C18.0883 7.3574 15.5837 5.74927 12 5.74927C8.41631 5.74927 5.91167 7.3574 4.29107 8.97817C3.47933 9.79 2.8924 10.6027 2.50907 11.2116C2.31764 11.5156 2.1777 11.7677 2.08648 11.9419C2.07577 11.9624 2.06574 11.9817 2.05637 12ZM22.5 12L22.9569 12.2031C23.0144 12.0738 23.0144 11.9262 22.9569 11.7969L22.5 12ZM12 8.75006C10.2051 8.75006 8.75 10.2051 8.75 12.0001C8.75 13.795 10.2051 15.2501 12 15.2501C13.7949 15.2501 15.25 13.795 15.25 12.0001C15.25 10.2051 13.7949 8.75006 12 8.75006ZM7.75 12.0001C7.75 9.65285 9.65279 7.75006 12 7.75006C14.3472 7.75006 16.25 9.65285 16.25 12.0001C16.25 14.3473 14.3472 16.2501 12 16.2501C9.65279 16.2501 7.75 14.3473 7.75 12.0001Z" fill="#FCFCFE"/>
</svg>
