<svg width="24" height="24" viewBox="0 0 24 24" fill="none" xmlns="http://www.w3.org/2000/svg">
<path fill-rule="evenodd" clip-rule="evenodd" d="M20.75 5.25003C20.75 5.52617 20.5261 5.75003 20.25 5.75004L13.5723 5.75009C13.3427 6.82167 12.3902 7.62509 11.25 7.62509C10.1098 7.62509 9.15733 6.82169 8.92772 5.7501L3.74999 5.75004C3.47385 5.75003 3.25 5.52617 3.25 5.25003C3.25 4.97389 3.47386 4.75003 3.75001 4.75004L8.92773 4.7501C9.15734 3.67852 10.1098 2.87509 11.25 2.87509C12.3902 2.87509 13.3427 3.67851 13.5723 4.75009L20.25 4.75004C20.5261 4.75003 20.75 4.97389 20.75 5.25003ZM20.75 12.0001C20.75 12.2763 20.5261 12.5001 20.25 12.5001L18.0723 12.5001C17.8427 13.5717 16.8902 14.3751 15.75 14.3751C14.6098 14.3751 13.6573 13.5717 13.4277 12.5001L3.75 12.5001C3.47386 12.5001 3.25 12.2762 3.25 12.0001C3.25 11.724 3.47386 11.5001 3.75 11.5001L13.4277 11.5001C13.6573 10.4285 14.6098 9.62509 15.75 9.62509C16.8902 9.62509 17.8427 10.4285 18.0723 11.5001L20.25 11.5001C20.5261 11.5001 20.75 11.724 20.75 12.0001ZM20.75 18.7502C20.75 19.0263 20.5261 19.2502 20.25 19.2502L10.5723 19.2501C10.3427 20.3217 9.39015 21.1251 8.25 21.1251C7.10985 21.1251 6.15734 20.3217 5.92773 19.2501L3.75001 19.2502C3.47387 19.2502 3.25001 19.0263 3.25 18.7502C3.24999 18.474 3.47384 18.2502 3.74998 18.2502L5.92772 18.2501C6.15733 17.1785 7.10984 16.3751 8.25 16.3751C9.39016 16.3751 10.3427 17.1785 10.5723 18.2501L20.25 18.2502C20.5261 18.2502 20.75 18.474 20.75 18.7502ZM17.125 12.0001C17.125 11.2407 16.5094 10.6251 15.75 10.6251C14.9906 10.6251 14.375 11.2407 14.375 12.0001C14.375 12.7595 14.9906 13.3751 15.75 13.3751C16.5094 13.3751 17.125 12.7595 17.125 12.0001ZM12.625 5.25009C12.625 4.4907 12.0094 3.87509 11.25 3.87509C10.4906 3.87509 9.875 4.49071 9.875 5.25011C9.875 6.00949 10.4906 6.62509 11.25 6.62509C12.0094 6.62509 12.625 6.00948 12.625 5.25009ZM9.625 18.7501C9.625 17.9907 9.00939 17.3751 8.25 17.3751C7.49061 17.3751 6.875 17.9907 6.875 18.7501C6.875 19.5095 7.49061 20.1251 8.25 20.1251C9.00939 20.1251 9.625 19.5095 9.625 18.7501Z" fill="#FCFCFE"/>
</svg>
