<svg width="24" height="24" viewBox="0 0 24 24" fill="none" xmlns="http://www.w3.org/2000/svg">
<path fill-rule="evenodd" clip-rule="evenodd" d="M3.75 5.75C3.6837 5.75 3.62011 5.77634 3.57322 5.82322C3.52634 5.87011 3.5 5.9337 3.5 6V16.4189L5.35472 10.8547C5.43768 10.6058 5.59685 10.3893 5.80968 10.2359C6.02251 10.0825 6.27822 10 6.54057 10H19V8.25C19 8.1837 18.9737 8.12011 18.9268 8.07322C18.8799 8.02634 18.8163 8 18.75 8H12.25C11.9795 8 11.7164 7.91228 11.5 7.75L8.9 5.8C8.85673 5.76754 8.80409 5.75 8.75 5.75H3.75ZM20 10V8.25C20 7.91848 19.8683 7.60054 19.6339 7.36612C19.3995 7.1317 19.0815 7 18.75 7H12.25C12.1959 7 12.1433 6.98246 12.1 6.95L9.5 5C9.28363 4.83772 9.02046 4.75 8.75 4.75H3.75C3.41848 4.75 3.10054 4.8817 2.86612 5.11612C2.6317 5.35054 2.5 5.66848 2.5 6V19.5C2.5 19.7761 2.72386 20 3 20H19.5C19.7152 20 19.9063 19.8623 19.9743 19.6581L22.6453 11.6453C22.7079 11.4574 22.725 11.2573 22.6951 11.0615C22.6653 10.8657 22.5893 10.6798 22.4735 10.5191C22.3577 10.3584 22.2053 10.2276 22.029 10.1373C21.8527 10.0471 21.6575 10 21.4594 10H20ZM6.54057 11C6.4881 11 6.43696 11.0165 6.39439 11.0472C6.35183 11.0779 6.31999 11.1212 6.3034 11.1709L3.69371 19H19.1396L21.6966 11.3291C21.7091 11.2915 21.7125 11.2515 21.7066 11.2123C21.7006 11.1731 21.6854 11.136 21.6622 11.1038C21.6391 11.0717 21.6086 11.0455 21.5734 11.0275C21.5381 11.0094 21.499 11 21.4594 11H6.54057Z" fill="#FCFCFE"/>
</svg>
