<svg width="24" height="24" viewBox="0 0 24 24" fill="none" xmlns="http://www.w3.org/2000/svg">
<path fill-rule="evenodd" clip-rule="evenodd" d="M7.125 4.25C5.53718 4.25 4.25 5.53718 4.25 7.125C4.25 8.71282 5.53718 10 7.125 10C8.71282 10 10 8.71282 10 7.125C10 5.53718 8.71282 4.25 7.125 4.25ZM3.25 7.125C3.25 4.9849 4.9849 3.25 7.125 3.25C9.2651 3.25 11 4.9849 11 7.125C11 9.2651 9.2651 11 7.125 11C4.9849 11 3.25 9.2651 3.25 7.125ZM16.875 4.25C15.2872 4.25 14 5.53718 14 7.125C14 8.71282 15.2872 10 16.875 10C18.4628 10 19.75 8.71282 19.75 7.125C19.75 5.53718 18.4628 4.25 16.875 4.25ZM13 7.125C13 4.9849 14.7349 3.25 16.875 3.25C19.0151 3.25 20.75 4.9849 20.75 7.125C20.75 9.2651 19.0151 11 16.875 11C14.7349 11 13 9.2651 13 7.125ZM7.125 14C5.53718 14 4.25 15.2872 4.25 16.875C4.25 18.4628 5.53718 19.75 7.125 19.75C8.71282 19.75 10 18.4628 10 16.875C10 15.2872 8.71282 14 7.125 14ZM3.25 16.875C3.25 14.7349 4.9849 13 7.125 13C9.2651 13 11 14.7349 11 16.875C11 19.0151 9.2651 20.75 7.125 20.75C4.9849 20.75 3.25 19.0151 3.25 16.875ZM16.875 14C15.2872 14 14 15.2872 14 16.875C14 18.4628 15.2872 19.75 16.875 19.75C18.4628 19.75 19.75 18.4628 19.75 16.875C19.75 15.2872 18.4628 14 16.875 14ZM13 16.875C13 14.7349 14.7349 13 16.875 13C19.0151 13 20.75 14.7349 20.75 16.875C20.75 19.0151 19.0151 20.75 16.875 20.75C14.7349 20.75 13 19.0151 13 16.875Z" fill="#FCFCFE"/>
</svg>
