<svg width="24" height="24" viewBox="0 0 24 24" fill="none" xmlns="http://www.w3.org/2000/svg">
<path fill-rule="evenodd" clip-rule="evenodd" d="M8.85671 3.29346C7.82058 3.66581 6.87874 4.225 6.0494 4.92057C5.99019 4.97044 5.95702 5.04169 5.95624 5.12515L5.99366 7.55791C5.99526 7.66146 5.96465 7.76295 5.90609 7.84837C5.69476 8.15655 5.51145 8.47117 5.35497 8.80152C5.31025 8.89592 5.23709 8.97395 5.14575 9.02465L3.02094 10.2041C2.94408 10.2487 2.90373 10.3126 2.89317 10.3759L2.89196 10.3832C2.69686 11.4562 2.70523 12.5589 2.89236 13.6193L2.89319 13.624C2.90375 13.6874 2.94407 13.7512 3.02091 13.7959L5.14575 14.9753C5.23709 15.026 5.31025 15.104 5.35497 15.1984C5.51145 15.5288 5.69476 15.8434 5.90609 16.1516C5.96465 16.237 5.99526 16.3385 5.99366 16.442L5.95596 18.8927C5.9532 18.959 5.98725 19.0354 6.03881 19.0784L6.04079 19.08C6.88465 19.7906 7.83481 20.3326 8.84738 20.6971C8.91567 20.7203 8.99784 20.7146 9.07629 20.6711L11.1612 19.4183C11.2494 19.3653 11.3517 19.3408 11.4543 19.3481C11.8244 19.3746 12.1943 19.3746 12.5643 19.3481C12.667 19.3408 12.7693 19.3653 12.8575 19.4183L14.9481 20.6745C14.9532 20.6776 14.9582 20.6807 14.9631 20.6839C15.0059 20.7117 15.0756 20.7266 15.1619 20.6971C16.1981 20.3248 17.1399 19.7656 17.9693 19.07C18.0285 19.0201 18.0617 18.9489 18.0625 18.8654L18.025 16.4327C18.0234 16.3291 18.054 16.2276 18.1126 16.1422C18.3239 15.834 18.5072 15.5194 18.6637 15.1891C18.7084 15.0947 18.7816 15.0166 18.8729 14.9659L20.9978 13.7865C21.0746 13.7419 21.115 13.678 21.1255 13.6147L21.1267 13.6074C21.3218 12.5344 21.3135 11.4317 21.1263 10.3712L21.1255 10.3666C21.1149 10.3032 21.0746 10.2393 20.9978 10.1947L18.8729 9.01527C18.7816 8.96458 18.7084 8.88655 18.6637 8.79215C18.5072 8.46179 18.3239 8.14717 18.1126 7.83899C18.054 7.75358 18.0234 7.65209 18.025 7.54854L18.0627 5.0979C18.0655 5.03158 18.0314 4.95518 17.9799 4.91221L17.9779 4.91056C17.1341 4.19995 16.1839 3.65804 15.1714 3.29347C15.1031 3.27032 15.0209 3.27593 14.9424 3.3195L12.8575 4.5723C12.7693 4.62529 12.667 4.64979 12.5643 4.64246C12.1943 4.61603 11.8244 4.61603 11.4543 4.64246C11.3517 4.64979 11.2494 4.62529 11.1612 4.5723L9.07057 3.31605C9.06552 3.31302 9.06053 3.30991 9.0556 3.3067C9.01275 3.27885 8.94302 3.264 8.85671 3.29346ZM9.59217 2.46283C9.26202 2.25219 8.86752 2.23093 8.52634 2.3496L8.52166 2.35126C7.36516 2.76641 6.32046 3.38808 5.40679 4.15438C5.11045 4.40393 4.95622 4.76282 4.95622 5.1281L4.99137 7.4167C4.81928 7.67796 4.66288 7.94669 4.52266 8.22678L2.53231 9.33156L2.5269 9.33461C2.21249 9.51427 1.9728 9.8233 1.90746 10.2075C1.69078 11.4015 1.70113 12.6219 1.90722 13.7911C1.97221 14.1759 2.2121 14.4855 2.5269 14.6653L4.52266 15.7732C4.66288 16.0533 4.81928 16.322 4.99137 16.5833L4.95637 18.8585C4.94293 19.2387 5.11375 19.6081 5.39665 19.8449C6.3332 20.6336 7.38822 21.2351 8.51201 21.6392L8.51696 21.641C8.87847 21.7667 9.26271 21.7163 9.57617 21.5372L11.5429 20.3555C11.8539 20.3721 12.1648 20.3721 12.4758 20.3555L14.4266 21.5278C14.7567 21.7384 15.1512 21.7596 15.4924 21.641L15.497 21.6393C16.6535 21.2242 17.6982 20.6025 18.6119 19.8362C18.9082 19.5866 19.0625 19.2278 19.0625 18.8625L19.0273 16.5739C19.1994 16.3126 19.3558 16.0439 19.496 15.7638L21.4864 14.659L21.4918 14.656C21.8062 14.4763 22.0458 14.1673 22.1112 13.7832C22.3279 12.5892 22.3176 11.3687 22.1115 10.1995C22.0465 9.81467 21.8066 9.50511 21.4918 9.32523L19.496 8.21741C19.3558 7.93732 19.1994 7.66859 19.0273 7.40733L19.0623 5.13211C19.0758 4.75193 18.9049 4.38246 18.622 4.14565C17.6855 3.35698 16.6305 2.75553 15.5067 2.35136L15.5017 2.3496C15.1402 2.22386 14.756 2.27424 14.4425 2.45336L12.4758 3.63504C12.1648 3.6185 11.8539 3.6185 11.5429 3.63504L9.59217 2.46283ZM11.9999 8C9.79074 8 7.99988 9.79086 7.99988 12C7.99988 14.2091 9.79074 16 11.9999 16C14.209 16 15.9999 14.2091 15.9999 12C15.9999 9.79086 14.209 8 11.9999 8ZM6.99988 12C6.99988 9.23858 9.23845 7 11.9999 7C14.7613 7 16.9999 9.23858 16.9999 12C16.9999 14.7614 14.7613 17 11.9999 17C9.23845 17 6.99988 14.7614 6.99988 12Z" fill="#FCFCFE"/>
</svg>
