<svg width="24" height="24" viewBox="0 0 24 24" fill="none" xmlns="http://www.w3.org/2000/svg">
<path fill-rule="evenodd" clip-rule="evenodd" d="M10.5894 3.25806C10.8611 3.30746 11.0413 3.56775 10.9919 3.83944L10.1446 8.5H15.1282L16.0081 3.66056C16.0575 3.38887 16.3178 3.20867 16.5894 3.25806C16.8611 3.30746 17.0413 3.56775 16.9919 3.83944L16.1446 8.5H21C21.2761 8.5 21.5 8.72386 21.5 9C21.5 9.27614 21.2761 9.5 21 9.5H15.9627L15.0537 14.5H19.9091C20.1852 14.5 20.4091 14.7239 20.4091 15C20.4091 15.2761 20.1852 15.5 19.9091 15.5H14.8718L13.9919 20.3394C13.9425 20.6111 13.6822 20.7913 13.4106 20.7419C13.1389 20.6925 12.9587 20.4322 13.0081 20.1606L13.8554 15.5H8.87183L7.99193 20.3394C7.94254 20.6111 7.68225 20.7913 7.41056 20.7419C7.13887 20.6925 6.95867 20.4322 7.00807 20.1606L7.85544 15.5H3C2.72386 15.5 2.5 15.2761 2.5 15C2.5 14.7239 2.72386 14.5 3 14.5H8.03726L8.94635 9.5H4.09091C3.81477 9.5 3.59091 9.27614 3.59091 9C3.59091 8.72386 3.81477 8.5 4.09091 8.5H9.12817L10.0081 3.66056C10.0575 3.38887 10.3178 3.20867 10.5894 3.25806ZM9.96274 9.5L9.05365 14.5H14.0373L14.9463 9.5H9.96274Z" fill="#FCFCFE"/>
</svg>
