<svg width="24" height="24" viewBox="0 0 24 24" fill="none" xmlns="http://www.w3.org/2000/svg">
<path fill-rule="evenodd" clip-rule="evenodd" d="M12.0012 5.62191C10.9836 4.35029 8.85697 2.77142 5.87996 3.51567C3.65068 4.07299 2.2703 5.89326 2.06578 8.14297C1.86223 10.3821 2.81514 13.0218 5.14768 15.3543C8.75448 18.9611 11.035 20.5766 11.7776 20.948C11.9184 21.0183 12.0841 21.0183 12.2248 20.948C12.9675 20.5766 15.248 18.9611 18.8548 15.3543C21.1873 13.0218 22.1402 10.3821 21.9367 8.14297C21.7322 5.89326 20.3518 4.07299 18.1225 3.51567C15.1455 2.77142 13.0189 4.35029 12.0012 5.62191ZM11.5671 6.74881C10.9606 5.6874 9.0195 3.76156 6.1225 4.48581C4.35178 4.92849 3.23216 6.35821 3.06168 8.23351C2.89024 10.1193 3.68732 12.4797 5.85478 14.6472C9.09035 17.8828 11.185 19.4355 12.0012 19.9282C12.8174 19.4355 14.9121 17.8828 18.1477 14.6472C20.3151 12.4797 21.1122 10.1193 20.9408 8.23351C20.7703 6.35821 19.6507 4.92849 17.88 4.48581C14.983 3.76156 13.0419 5.6874 12.4353 6.74881C12.3463 6.90459 12.1807 7.00074 12.0012 7.00074C11.8218 7.00074 11.6561 6.90459 11.5671 6.74881Z" fill="#FCFCFE"/>
</svg>
