<svg width="24" height="24" viewBox="0 0 24 24" fill="none" xmlns="http://www.w3.org/2000/svg">
<path fill-rule="evenodd" clip-rule="evenodd" d="M11.9995 3.76286C11.9373 3.76286 11.8773 3.78604 11.8313 3.82789L11.4949 3.45794L11.8313 3.82789L4.33182 10.6468C4.30605 10.6702 4.28546 10.6988 4.27137 10.7306C4.25728 10.7625 4.25 10.7969 4.25 10.8317V19.4999C4.25 19.5327 4.25647 19.5652 4.26903 19.5956C4.2816 19.6259 4.30002 19.6535 4.32323 19.6767C4.34645 19.6999 4.37402 19.7183 4.40435 19.7309C4.43468 19.7434 4.4672 19.7499 4.50003 19.7499L8.99948 19.7493C9.06578 19.7493 9.12936 19.723 9.17624 19.6761C9.22312 19.6292 9.24945 19.5656 9.24945 19.4993V14.9992C9.24945 14.6677 9.38115 14.3498 9.61557 14.1153C9.84999 13.8809 10.1679 13.7492 10.4995 13.7492H13.4995C13.831 13.7492 14.1489 13.8809 14.3833 14.1153C14.6178 14.3498 14.7495 14.6677 14.7495 14.9992V19.4993C14.7495 19.5656 14.7758 19.6292 14.8227 19.6761C14.8695 19.723 14.9331 19.7493 14.9994 19.7493L19.5 19.7499C19.5328 19.7499 19.5653 19.7434 19.5956 19.7309C19.626 19.7183 19.6535 19.6999 19.6768 19.6767C19.7 19.6535 19.7184 19.6259 19.731 19.5956C19.7435 19.5653 19.75 19.5327 19.75 19.4999V10.8318C19.75 10.7969 19.7427 10.7625 19.7286 10.7306C19.7145 10.6988 19.6939 10.6702 19.6682 10.6468L12.1677 3.82787C12.1216 3.78604 12.0617 3.76285 11.9995 3.76286ZM11.1586 3.088C11.3887 2.8788 11.6885 2.76287 11.9994 2.76286C12.3104 2.76285 12.6102 2.87875 12.8403 3.08795L20.3409 9.90686C20.4697 10.024 20.5727 10.1668 20.6431 10.3261C20.7136 10.4854 20.75 10.6576 20.75 10.8318V19.4999C20.75 19.6641 20.7177 19.8266 20.6548 19.9783C20.592 20.13 20.4999 20.2678 20.3838 20.3838C20.2677 20.4999 20.1299 20.592 19.9782 20.6548C19.8266 20.7176 19.664 20.7499 19.4998 20.7499L14.9993 20.7493C14.6678 20.7493 14.3499 20.6176 14.1155 20.3831C13.8811 20.1487 13.7494 19.8308 13.7495 19.4993V14.9992C13.7495 14.9329 13.7231 14.8693 13.6762 14.8224C13.6293 14.7756 13.5658 14.7492 13.4995 14.7492H10.4995C10.4331 14.7492 10.3696 14.7756 10.3227 14.8224C10.2758 14.8693 10.2495 14.9329 10.2495 14.9992V19.4993C10.2495 19.8308 10.1178 20.1487 9.88339 20.3831C9.649 20.6176 9.3311 20.7493 8.99961 20.7493L4.50016 20.7499C4.33599 20.7499 4.17343 20.7176 4.02175 20.6548C3.87008 20.592 3.73226 20.4999 3.61617 20.3838C3.50008 20.2678 3.40799 20.13 3.34517 19.9783C3.28234 19.8266 3.25 19.6641 3.25 19.4999V10.8317C3.25 10.6576 3.28639 10.4854 3.35684 10.3261C3.42728 10.1668 3.53023 10.024 3.65908 9.90689L11.1586 3.088Z" fill="#FCFCFE"/>
</svg>
