<svg width="24" height="24" viewBox="0 0 24 24" fill="none" xmlns="http://www.w3.org/2000/svg">
<path fill-rule="evenodd" clip-rule="evenodd" d="M6.76124 8.17496C6.00472 8.02448 5.22056 8.10172 4.50793 8.3969C3.79529 8.69208 3.1862 9.19195 2.75766 9.8333C2.32912 10.4747 2.10039 11.2287 2.10039 12C2.10039 12.7714 2.32912 13.5254 2.75766 14.1668C3.1862 14.8081 3.79529 15.308 4.50793 15.6032C5.22056 15.8983 6.00472 15.9756 6.76124 15.8251C7.51203 15.6757 8.20214 15.3088 8.74568 14.7701L9.54754 13.8647C9.76724 13.6166 10.1464 13.5936 10.3945 13.8133C10.6426 14.033 10.6656 14.4122 10.4459 14.6603L9.63155 15.5798C9.62351 15.5889 9.6152 15.5977 9.60664 15.6063C8.89339 16.3195 7.98465 16.8052 6.99535 17.002C6.00605 17.1988 4.98061 17.0978 4.0487 16.7118C3.1168 16.3258 2.32029 15.6721 1.7599 14.8334C1.1995 13.9947 0.900391 13.0087 0.900391 12C0.900391 10.9913 1.1995 10.0053 1.7599 9.16662C2.32029 8.32793 3.1168 7.67425 4.0487 7.28824C4.98061 6.90223 6.00605 6.80124 6.99535 6.99802C7.98465 7.19481 8.89339 7.68053 9.60664 8.39378C9.6152 8.40235 9.62351 8.41118 9.63155 8.42025L15.2551 14.7701C15.7986 15.3088 16.4887 15.6757 17.2395 15.8251C17.9961 15.9756 18.7802 15.8983 19.4929 15.6032C20.2055 15.308 20.8146 14.8081 21.2431 14.1668C21.6717 13.5254 21.9004 12.7714 21.9004 12C21.9004 11.2287 21.6717 10.4747 21.2431 9.8333C20.8146 9.19195 20.2055 8.69208 19.4929 8.3969C18.7802 8.10172 17.9961 8.02448 17.2395 8.17496C16.4887 8.32431 15.7986 8.69127 15.2551 9.22994L14.4532 10.1354C14.2335 10.3834 13.8543 10.4064 13.6063 10.1867C13.3582 9.96705 13.3352 9.58784 13.5549 9.33977L14.3692 8.42025C14.3773 8.41118 14.3856 8.40235 14.3941 8.39378C15.1074 7.68053 16.0161 7.19481 17.0054 6.99802C17.9947 6.80124 19.0202 6.90223 19.9521 7.28824C20.884 7.67425 21.6805 8.32793 22.2409 9.16662C22.8013 10.0053 23.1004 10.9913 23.1004 12C23.1004 13.0087 22.8013 13.9947 22.2409 14.8334C21.6805 15.6721 20.884 16.3258 19.9521 16.7118C19.0202 17.0978 17.9947 17.1988 17.0054 17.002C16.0161 16.8052 15.1074 16.3195 14.3941 15.6063C14.3856 15.5977 14.3773 15.5889 14.3692 15.5798L8.74568 9.22994C8.20215 8.69127 7.51204 8.32431 6.76124 8.17496Z" fill="white"/>
</svg>
