<svg width="24" height="24" viewBox="0 0 24 24" fill="none" xmlns="http://www.w3.org/2000/svg">
<path fill-rule="evenodd" clip-rule="evenodd" d="M2.5 12C2.5 6.75586 6.75586 2.5 12 2.5C17.2441 2.5 21.5 6.75586 21.5 12C21.5 17.2441 17.2441 21.5 12 21.5C6.75586 21.5 2.5 17.2441 2.5 12ZM12 3.5C7.30814 3.5 3.5 7.30814 3.5 12C3.5 16.6919 7.30814 20.5 12 20.5C16.6919 20.5 20.5 16.6919 20.5 12C20.5 7.30814 16.6919 3.5 12 3.5ZM10.768 7.872C10.768 7.29586 11.2319 6.832 11.808 6.832C12.3841 6.832 12.848 7.29586 12.848 7.872C12.848 8.44814 12.3841 8.912 11.808 8.912C11.2319 8.912 10.768 8.44814 10.768 7.872ZM11.7791 7.84305C11.7727 7.84944 11.768 7.85832 11.768 7.872C11.768 7.88568 11.7727 7.89456 11.7791 7.90095C11.7854 7.90734 11.7943 7.912 11.808 7.912C11.8217 7.912 11.8306 7.90734 11.8369 7.90095C11.8433 7.89456 11.848 7.88568 11.848 7.872C11.848 7.85832 11.8433 7.84944 11.8369 7.84305C11.8306 7.83666 11.8217 7.832 11.808 7.832C11.7943 7.832 11.7854 7.83666 11.7791 7.84305ZM10.756 11.256C10.756 10.9799 10.9799 10.756 11.256 10.756H12C12.2761 10.756 12.5 10.9799 12.5 11.256V16.012H12.744C13.0201 16.012 13.244 16.2359 13.244 16.512C13.244 16.7881 13.0201 17.012 12.744 17.012H12C11.7239 17.012 11.5 16.7881 11.5 16.512V11.756H11.256C10.9799 11.756 10.756 11.5321 10.756 11.256Z" fill="white"/>
</svg>
