<svg width="24" height="24" viewBox="0 0 24 24" fill="none" xmlns="http://www.w3.org/2000/svg">
<path fill-rule="evenodd" clip-rule="evenodd" d="M2.5 5.25C2.5 4.97386 2.72386 4.75 3 4.75H21C21.2761 4.75 21.5 4.97386 21.5 5.25V18C21.5 18.3315 21.3683 18.6495 21.1339 18.8839C20.8995 19.1183 20.5815 19.25 20.25 19.25H3.75C3.41848 19.25 3.10054 19.1183 2.86612 18.8839C2.6317 18.6495 2.5 18.3315 2.5 18V5.25ZM4.2854 5.75L10.698 11.6282C10.7001 11.6301 10.7021 11.632 10.7042 11.6339L12 12.8217L13.2926 11.6369C13.2967 11.6329 13.301 11.629 13.3053 11.6252L19.7146 5.75H4.2854ZM20.5 6.38662L14.3763 12L20.5 17.6133V6.38662ZM19.7146 18.25L13.6364 12.6783L12.3379 13.8686C12.1467 14.0438 11.8533 14.0438 11.6621 13.8686L10.3636 12.6783L4.28545 18.25H19.7146ZM3.5 17.6134L9.6237 12L3.5 6.38662V17.6134Z" fill="#FCFCFE"/>
</svg>
