<svg width="24" height="24" viewBox="0 0 24 24" fill="none" xmlns="http://www.w3.org/2000/svg">
<path fill-rule="evenodd" clip-rule="evenodd" d="M7.5 1.75055C7.77614 1.75055 8 1.97441 8 2.25055V3.25055H11.5V2.25055C11.5 1.97441 11.7239 1.75055 12 1.75055C12.2761 1.75055 12.5 1.97441 12.5 2.25055V3.25055H16V2.25055C16 1.97441 16.2239 1.75055 16.5 1.75055C16.7761 1.75055 17 1.97441 17 2.25055V3.25055H18.75C19.0815 3.25055 19.3995 3.38225 19.6339 3.61667C19.8683 3.85109 20 4.16903 20 4.50055V18.7505C20 19.4799 19.7103 20.1794 19.1945 20.6951C18.6788 21.2108 17.9793 21.5005 17.25 21.5005H6.75C6.02065 21.5005 5.32118 21.2108 4.80546 20.6951C4.28973 20.1794 4 19.4799 4 18.7505V4.50055C4 4.16903 4.1317 3.85109 4.36612 3.61667C4.60054 3.38225 4.91848 3.25055 5.25 3.25055H7V2.25055C7 1.97441 7.22386 1.75055 7.5 1.75055ZM7 4.25055H5.25C5.1837 4.25055 5.12011 4.27689 5.07322 4.32377C5.02634 4.37066 5 4.43425 5 4.50055V18.7505C5 19.2147 5.18437 19.6598 5.51256 19.988C5.84075 20.3162 6.28587 20.5005 6.75 20.5005H17.25C17.7141 20.5005 18.1592 20.3162 18.4874 19.988C18.8156 19.6598 19 19.2147 19 18.7505V4.50055C19 4.43424 18.9737 4.37066 18.9268 4.32377C18.8799 4.27689 18.8163 4.25055 18.75 4.25055H17V5.25055C17 5.52669 16.7761 5.75055 16.5 5.75055C16.2239 5.75055 16 5.52669 16 5.25055V4.25055H12.5V5.25055C12.5 5.52669 12.2761 5.75055 12 5.75055C11.7239 5.75055 11.5 5.52669 11.5 5.25055V4.25055H8V5.25055C8 5.52669 7.77614 5.75055 7.5 5.75055C7.22386 5.75055 7 5.52669 7 5.25055V4.25055ZM8.5 12.0005C8.5 11.7244 8.72386 11.5005 9 11.5005H15C15.2761 11.5005 15.5 11.7244 15.5 12.0005C15.5 12.2767 15.2761 12.5005 15 12.5005H9C8.72386 12.5005 8.5 12.2767 8.5 12.0005ZM8.5 15.0005C8.5 14.7244 8.72386 14.5005 9 14.5005H15C15.2761 14.5005 15.5 14.7244 15.5 15.0005C15.5 15.2767 15.2761 15.5005 15 15.5005H9C8.72386 15.5005 8.5 15.2767 8.5 15.0005Z" fill="#FCFCFE"/>
</svg>
