<svg width="24" height="24" viewBox="0 0 24 24" fill="none" xmlns="http://www.w3.org/2000/svg">
<path fill-rule="evenodd" clip-rule="evenodd" d="M20.4927 5.81135C20.5561 6.73927 20.2244 7.70744 19.4023 8.54113L10.6692 17.3969C10.1185 17.9553 9.52193 18.2441 8.93735 18.2754C8.35166 18.3066 7.83623 18.0751 7.47063 17.7043C6.74516 16.9687 6.59941 15.6717 7.53127 14.7268L14.8089 7.34699C15.0028 7.15037 15.3193 7.14816 15.516 7.34206C15.7126 7.53595 15.7148 7.85253 15.5209 8.04915L8.24329 15.4289C7.71963 15.9599 7.81647 16.6309 8.18265 17.0022C8.36287 17.1849 8.60553 17.2916 8.88406 17.2768C9.1637 17.2618 9.53751 17.1202 9.95716 16.6947L18.6902 7.83897C19.3236 7.19671 19.5377 6.50444 19.495 5.87954C19.4516 5.24392 19.1393 4.63827 18.6496 4.194C18.1614 3.75102 17.5111 3.48172 16.8084 3.50097C16.112 3.52006 15.3209 3.82409 14.5505 4.60527L5.81742 13.461C3.85274 15.4532 4.28736 17.9594 5.80418 19.3877C6.56361 20.1028 7.58845 20.5383 8.71824 20.4973C9.84384 20.4566 11.1228 19.9405 12.383 18.6626L19.1754 11.7748C19.3693 11.5782 19.6859 11.576 19.8825 11.7699C20.0791 11.9638 20.0813 12.2804 19.8874 12.477L13.095 19.3648C11.6868 20.7928 10.176 21.4452 8.75443 21.4967C7.33706 21.548 6.05732 20.9996 5.11865 20.1157C3.23925 18.3461 2.70353 15.1944 5.1054 12.7588L13.8385 3.90311C14.7663 2.96234 15.7945 2.52839 16.781 2.50135C17.7613 2.47448 18.6575 2.85091 19.3216 3.4534C19.9842 4.05459 20.43 4.89414 20.4927 5.81135Z" fill="#FCFCFE"/>
</svg>
