<svg width="24" height="24" viewBox="0 0 24 24" fill="none" xmlns="http://www.w3.org/2000/svg">
<path fill-rule="evenodd" clip-rule="evenodd" d="M19.5754 2.88235C19.7893 2.82203 20.0154 2.81981 20.2304 2.87591C20.4454 2.93201 20.6415 3.04441 20.7986 3.20153C20.9558 3.35865 21.0682 3.55481 21.1243 3.76981C21.1804 3.98481 21.1781 4.21088 21.1178 4.42474L16.1909 21.893C16.1218 22.1379 15.9796 22.3559 15.7833 22.5178C15.587 22.6798 15.346 22.778 15.0924 22.7993C14.8388 22.8205 14.5847 22.7639 14.3642 22.6369C14.1436 22.51 13.9671 22.3187 13.8581 22.0887L10.0564 14.0627C10.0316 14.0106 9.98962 13.9685 9.93744 13.9438L1.91143 10.142C1.68144 10.0331 1.49018 9.85654 1.36322 9.63599C1.23625 9.41544 1.17963 9.1614 1.20091 8.90781C1.2222 8.65421 1.32037 8.41316 1.48232 8.21686C1.64427 8.02056 1.86228 7.87837 2.10721 7.80929L2.24294 8.29051L2.10721 7.80929L19.5754 2.88235ZM19.9779 3.84351C19.9349 3.83229 19.8897 3.83274 19.8469 3.8448L2.37867 8.77174C2.32968 8.78555 2.28608 8.81399 2.25369 8.85325C2.2213 8.89251 2.20167 8.94072 2.19741 8.99144C2.19315 9.04216 2.20448 9.09297 2.22987 9.13708C2.25526 9.18119 2.29352 9.2165 2.33951 9.23828L10.2892 13.0039L14.2826 9.01042C14.4779 8.81516 14.7945 8.81516 14.9898 9.01042C15.185 9.20568 15.185 9.52226 14.9898 9.71753L10.9963 13.711L14.7619 21.6607C14.7837 21.7067 14.819 21.7449 14.8631 21.7703C14.9072 21.7957 14.958 21.807 15.0087 21.8028C15.0594 21.7985 15.1077 21.7789 15.1469 21.7465C15.1862 21.7141 15.2146 21.6705 15.2284 21.6215L20.1554 4.15328C20.1674 4.1105 20.1679 4.06529 20.1567 4.02229C20.1454 3.97929 20.123 3.94006 20.0915 3.90863C20.0601 3.87721 20.0209 3.85473 19.9779 3.84351Z" fill="#FCFCFE"/>
</svg>
