<svg width="19" height="19" viewBox="0 0 19 19" fill="none" xmlns="http://www.w3.org/2000/svg">
<path fill-rule="evenodd" clip-rule="evenodd" d="M13 1.5C12.9337 1.5 12.8701 1.52634 12.8232 1.57322L10.5519 3.84459L15.0965 8.38575L17.3661 6.11612C17.413 6.06923 17.4393 6.00564 17.4393 5.93934C17.4393 5.87303 17.413 5.80945 17.3661 5.76256L13.1768 1.57322C13.1299 1.52634 13.0663 1.5 13 1.5ZM14.3894 9.09285L9.84475 4.5517L1.70711 12.6893L6.25 17.2322L14.3894 9.09285ZM5.04289 17.4393L1.5 13.8964V17.1893C1.5 17.2556 1.52634 17.3192 1.57322 17.3661C1.62011 17.413 1.6837 17.4393 1.75 17.4393H5.04289ZM0.581528 12.556C0.580332 12.5591 0.579167 12.5622 0.578034 12.5653C0.526466 12.7043 0.5 12.8515 0.5 13V17.1893C0.5 17.5209 0.631696 17.8388 0.866117 18.0732C1.10054 18.3076 1.41848 18.4393 1.75 18.4393H17.5C17.7761 18.4393 18 18.2155 18 17.9393C18 17.6632 17.7761 17.4393 17.5 17.4393H7.45711L18.0732 6.82322C18.3076 6.5888 18.4393 6.27086 18.4393 5.93934C18.4393 5.60782 18.3076 5.28988 18.0732 5.05546L13.8839 0.866116C13.6495 0.631696 13.3315 0.5 13 0.5C12.6685 0.5 12.3505 0.631696 12.1161 0.866116L0.866117 12.1161C0.750043 12.2322 0.657969 12.37 0.595151 12.5216C0.590436 12.533 0.585898 12.5445 0.581528 12.556Z" fill="white"/>
</svg>
