<svg width="24" height="24" viewBox="0 0 24 24" fill="none" xmlns="http://www.w3.org/2000/svg">
<path fill-rule="evenodd" clip-rule="evenodd" d="M7.74161 3.53198C6.77704 3.65575 5.89056 4.12662 5.24792 4.85656C4.60484 5.58702 4.25006 6.52683 4.25 7.50003M7.74161 3.53198C7.79447 3.52586 7.84791 3.53693 7.894 3.56359C7.94045 3.59045 7.97692 3.63169 7.9979 3.68107L7.99852 3.68254L9.88201 8.07734C9.89825 8.11524 9.90486 8.15656 9.90127 8.19762C9.89767 8.23869 9.88398 8.27823 9.8614 8.31273L8.30322 10.6936C8.30294 10.694 8.30266 10.6944 8.30239 10.6948C8.18415 10.8739 8.11426 11.0805 8.0995 11.2945C8.08471 11.5091 8.12582 11.7238 8.21882 11.9177L8.21881 11.9177L8.2205 11.9212C9.04767 13.6122 10.4184 14.9768 12.1133 15.7962L12.1168 15.7979C12.3119 15.8904 12.5277 15.9304 12.743 15.9141C12.9577 15.8979 13.1645 15.8261 13.3432 15.7059C13.3436 15.7056 13.3441 15.7053 13.3445 15.705L15.6893 14.1415C15.7239 14.1184 15.7637 14.1043 15.8052 14.1005C15.8466 14.0967 15.8883 14.1033 15.9265 14.1197L20.3175 16.0015L20.319 16.0021C20.3683 16.0231 20.4096 16.0596 20.4364 16.106C20.4631 16.1521 20.4742 16.2055 20.4681 16.2584C20.3443 17.223 19.8734 18.1095 19.1435 18.7521C18.413 19.3952 17.4732 19.75 16.5 19.75C13.2511 19.75 10.1353 18.4594 7.83794 16.1621C5.54063 13.8648 4.25001 10.749 4.25 7.50006M7.62021 2.53937C7.88872 2.50688 8.16051 2.56253 8.39464 2.69793C8.62853 2.8332 8.81218 3.04074 8.91797 3.28934C8.91808 3.28959 8.91819 3.28984 8.91829 3.29009L10.8012 7.68342C10.8823 7.87288 10.9154 8.07948 10.8975 8.28482C10.8795 8.49016 10.811 8.68787 10.6981 8.86034L9.13847 11.2434L9.137 11.2457C9.11376 11.2808 9.10002 11.3213 9.09713 11.3633C9.09427 11.4048 9.1021 11.4463 9.11986 11.4839C9.8484 12.9722 11.0549 14.1731 12.5464 14.8949C12.5842 14.9125 12.6259 14.9201 12.6675 14.917C12.7096 14.9138 12.7502 14.8997 12.7852 14.8761L12.7874 14.8746L15.1345 13.3095C15.3076 13.1941 15.5066 13.1237 15.7137 13.1047C15.9207 13.0857 16.1293 13.1186 16.3204 13.2005L20.7099 15.0817C20.7103 15.0819 20.7106 15.082 20.7109 15.0822C20.9594 15.188 21.1669 15.3716 21.3021 15.6054C21.4375 15.8395 21.4932 16.1113 21.4607 16.3798L21.4602 16.3831C21.306 17.5898 20.7173 18.6989 19.8043 19.5027C18.8912 20.3065 17.7165 20.75 16.5 20.75C12.9859 20.75 9.61569 19.3541 7.13084 16.8692C4.64598 14.3843 3.25 11.0142 3.25 7.50003V7.50001C3.25006 6.28354 3.69353 5.10881 4.49735 4.19577C5.30118 3.28273 6.41025 2.69399 7.6169 2.53978L7.62021 2.53936L7.62021 2.53937ZM14.4625 3.62018C14.5343 3.35351 14.8086 3.19547 15.0752 3.26719C16.4313 3.63188 17.6677 4.34649 18.6606 5.33942C19.6535 6.33235 20.3682 7.56876 20.7328 8.9248C20.8046 9.19146 20.6465 9.46578 20.3799 9.53749C20.1132 9.60921 19.8389 9.45117 19.7672 9.18451C19.448 7.99768 18.8225 6.91556 17.9535 6.04653C17.0845 5.17749 16.0024 4.55206 14.8155 4.23287C14.5489 4.16116 14.3908 3.88684 14.4625 3.62018ZM13.6859 6.51867C13.7576 6.252 14.0319 6.09397 14.2986 6.16568C15.1461 6.3936 15.9188 6.8402 16.5393 7.46074C17.1598 8.08128 17.6064 8.85398 17.8343 9.70145C17.9061 9.96811 17.748 10.2424 17.4814 10.3141C17.2147 10.3859 16.9404 10.2278 16.8687 9.96116C16.6863 9.2829 16.3288 8.66448 15.8322 8.16785C15.3355 7.67121 14.7171 7.31378 14.0389 7.13137C13.7722 7.05965 13.6142 6.78534 13.6859 6.51867Z" fill="#FCFCFE"/>
</svg>
