<svg width="24" height="24" viewBox="0 0 24 24" fill="none" xmlns="http://www.w3.org/2000/svg">
<path fill-rule="evenodd" clip-rule="evenodd" d="M7.74161 3.53195C6.77704 3.65572 5.89056 4.12659 5.24792 4.85653C4.60484 5.58699 4.25006 6.5268 4.25 7.5M7.74161 3.53195C7.79447 3.52583 7.84791 3.5369 7.894 3.56356C7.94045 3.59042 7.97692 3.63166 7.9979 3.68104L7.99852 3.68251L9.88201 8.07731C9.89825 8.11521 9.90486 8.15653 9.90127 8.19759C9.89767 8.23866 9.88398 8.2782 9.8614 8.3127L8.30322 10.6936C8.30294 10.694 8.30265 10.6944 8.30237 10.6948C8.18415 10.8739 8.11425 11.0804 8.0995 11.2945C8.08471 11.509 8.12582 11.7237 8.21882 11.9177L8.21881 11.9177L8.2205 11.9211C9.04767 13.6122 10.4184 14.9767 12.1133 15.7962L12.1168 15.7979C12.3119 15.8903 12.5277 15.9304 12.743 15.9141C12.9577 15.8979 13.1645 15.8261 13.3432 15.7059C13.3436 15.7056 13.3441 15.7053 13.3445 15.705L15.6893 14.1414C15.7239 14.1183 15.7637 14.1043 15.8052 14.1005C15.8466 14.0967 15.8883 14.1033 15.9265 14.1196L20.3175 16.0015L20.319 16.0021C20.3683 16.0231 20.4096 16.0596 20.4364 16.106C20.4631 16.1521 20.4742 16.2055 20.4681 16.2584C20.3443 17.2229 19.8734 18.1094 19.1435 18.7521C18.413 19.3952 17.4732 19.7499 16.5 19.75C13.2511 19.75 10.1353 18.4594 7.83794 16.1621C5.54063 13.8647 4.25001 10.7489 4.25 7.50003M7.62021 2.53934C7.88872 2.50685 8.16051 2.56249 8.39464 2.6979C8.62853 2.83317 8.81218 3.04071 8.91798 3.28932C8.91808 3.28956 8.91819 3.28981 8.91829 3.29006L10.8012 7.68339C10.8823 7.87285 10.9154 8.07945 10.8975 8.28479C10.8795 8.49013 10.811 8.68784 10.6981 8.86031L9.13847 11.2434L9.137 11.2457C9.11376 11.2807 9.10002 11.3213 9.09713 11.3633C9.09427 11.4048 9.1021 11.4463 9.11986 11.4839C9.84839 12.9721 11.0548 14.1731 12.5463 14.8948C12.5841 14.9125 12.6259 14.9201 12.6675 14.9169C12.7096 14.9138 12.7502 14.8997 12.7852 14.876L12.7874 14.8745L15.1345 13.3094C15.3076 13.1941 15.5066 13.1237 15.7137 13.1047C15.9208 13.0856 16.1293 13.1186 16.3204 13.2005L20.7099 15.0817C20.7103 15.0818 20.7106 15.082 20.7109 15.0821C20.9594 15.1879 21.1669 15.3715 21.3021 15.6054C21.4375 15.8395 21.4932 16.1113 21.4607 16.3798L21.4602 16.3831C21.306 17.5898 20.7173 18.6988 19.8043 19.5026C18.8912 20.3065 17.7165 20.7499 16.5 20.75C12.9859 20.75 9.61569 19.354 7.13084 16.8692C4.64598 14.3843 3.25 11.0141 3.25 7.5V7.49997C3.25006 6.28351 3.69353 5.10878 4.49735 4.19574C5.30118 3.2827 6.41025 2.69396 7.6169 2.53975L7.62021 2.53933L7.62021 2.53934Z" fill="#FCFCFE"/>
</svg>
