<svg width="24" height="24" viewBox="0 0 24 24" fill="none" xmlns="http://www.w3.org/2000/svg">
<path fill-rule="evenodd" clip-rule="evenodd" d="M12.0004 3.15002C12.3318 3.15002 12.6004 3.41865 12.6004 3.75002V11.4H20.2504C20.5818 11.4 20.8504 11.6687 20.8504 12C20.8504 12.3314 20.5818 12.6 20.2504 12.6H12.6004V20.25C12.6004 20.5814 12.3318 20.85 12.0004 20.85C11.669 20.85 11.4004 20.5814 11.4004 20.25V12.6H3.75039C3.41902 12.6 3.15039 12.3314 3.15039 12C3.15039 11.6687 3.41902 11.4 3.75039 11.4H11.4004V3.75002C11.4004 3.41865 11.669 3.15002 12.0004 3.15002Z" fill="white"/>
</svg>
