<svg width="24" height="24" viewBox="0 0 24 24" fill="none" xmlns="http://www.w3.org/2000/svg">
<path fill-rule="evenodd" clip-rule="evenodd" d="M14.1158 2.42677C14.3502 2.19235 14.6682 2.06065 14.9997 2.06065C15.3312 2.06065 15.6492 2.19235 15.8836 2.42677L21.5729 8.11611C21.8073 8.35053 21.939 8.66847 21.939 8.99999C21.939 9.33151 21.8073 9.64946 21.5729 9.88388L15.9725 15.4843C16.9103 17.7987 15.5865 20.0108 14.8264 21.021C14.7187 21.1638 14.5812 21.2823 14.424 21.3675C14.2668 21.4527 14.0931 21.5032 13.9147 21.5155C13.7363 21.5279 13.5573 21.5017 13.3899 21.4389C13.2226 21.3762 13.0707 21.2783 12.9445 21.1519M12.9445 21.1519L8.2497 16.4571L4.85325 19.8535C4.65799 20.0488 4.34141 20.0488 4.14614 19.8535C3.95088 19.6583 3.95088 19.3417 4.14614 19.1464L7.54259 15.75L2.82923 11.0366C2.70526 10.9124 2.60839 10.763 2.54575 10.599C2.48312 10.435 2.45568 10.2597 2.46523 10.0844C2.47478 9.90913 2.5211 9.73783 2.60117 9.58163C2.68125 9.42542 2.79329 9.28781 2.93003 9.17774C4.42642 7.97061 5.895 7.70603 6.9991 7.75559C7.54681 7.78017 8.00027 7.88167 8.31959 7.97824C8.38714 7.99867 8.44884 8.01892 8.50433 8.03825L14.1158 2.42677M8.40293 9.07312C8.40268 9.073 8.40223 9.07278 8.40157 9.07247L8.38772 9.06603C8.3738 9.0597 8.35067 9.0495 8.3189 9.03656C8.2553 9.01065 8.1575 8.97395 8.03012 8.93543C7.77486 8.85823 7.40432 8.77478 6.95426 8.75458C6.06283 8.71457 4.84124 8.92079 3.5575 9.95638C3.53004 9.97849 3.50714 10.0064 3.49105 10.0378C3.47497 10.0692 3.46567 10.1036 3.46375 10.1388C3.46183 10.174 3.46734 10.2092 3.47992 10.2421C3.49249 10.275 3.51183 10.3049 3.53669 10.3299C3.53671 10.3299 3.53666 10.3299 3.53669 10.3299L8.60259 15.3958C8.60281 15.396 8.60237 15.3956 8.60259 15.3958C8.60281 15.396 8.60369 15.3969 8.60391 15.3971L13.6516 20.4448C13.6768 20.4701 13.7076 20.4901 13.741 20.5026C13.7745 20.5152 13.8102 20.5204 13.8458 20.5179C13.8814 20.5155 13.9161 20.5054 13.9474 20.4884C13.9788 20.4714 14.0062 20.4478 14.0277 20.4193C14.805 19.3862 15.8609 17.4653 14.9275 15.5986C14.8312 15.4061 14.869 15.1736 15.0211 15.0214L20.8658 9.17677C20.9127 9.12989 20.939 9.0663 20.939 8.99999C20.939 8.93369 20.9127 8.8701 20.8658 8.82322L15.1765 3.13388C15.1296 3.08699 15.066 3.06065 14.9997 3.06065C14.9334 3.06065 14.8698 3.08699 14.8229 3.13388L8.97825 8.97855C8.82656 9.13024 8.59507 9.16821 8.40293 9.07312Z" fill="#FCFCFE"/>
</svg>
