<svg width="24" height="24" viewBox="0 0 24 24" fill="none" xmlns="http://www.w3.org/2000/svg">
<path fill-rule="evenodd" clip-rule="evenodd" d="M7.49029 3.25H6C5.72386 3.25 5.5 3.47386 5.5 3.75C5.5 4.02614 5.72386 4.25 6 4.25H6.90404L4.83051 16H3.75C3.47386 16 3.25 16.2239 3.25 16.5C3.25 16.7761 3.47386 17 3.75 17H5.24146C5.24756 17.0001 5.25364 17.0001 5.25971 17H11.5V22.5C11.5 22.7761 11.7239 23 12 23C12.2761 23 12.5 22.7761 12.5 22.5V17H18.7403C18.7464 17.0001 18.7524 17.0001 18.7585 17H20.25C20.5261 17 20.75 16.7761 20.75 16.5C20.75 16.2239 20.5261 16 20.25 16H19.1695L17.096 4.25H18C18.2761 4.25 18.5 4.02614 18.5 3.75C18.5 3.47386 18.2761 3.25 18 3.25H16.5097C16.5036 3.24989 16.4976 3.24989 16.4915 3.25H7.50855C7.50244 3.24989 7.49636 3.24989 7.49029 3.25ZM16.0805 4.25H7.91949L5.84596 16H18.154L16.0805 4.25Z" fill="#FCFCFE"/>
</svg>
