<svg width="24" height="24" viewBox="0 0 24 24" fill="none" xmlns="http://www.w3.org/2000/svg">
<path fill-rule="evenodd" clip-rule="evenodd" d="M12 3.5C7.30558 3.5 3.5 7.30558 3.5 12C3.5 16.6944 7.30558 20.5 12 20.5C16.6944 20.5 20.5 16.6944 20.5 12C20.5 7.30558 16.6944 3.5 12 3.5ZM2.5 12C2.5 6.75329 6.75329 2.5 12 2.5C17.2467 2.5 21.5 6.75329 21.5 12C21.5 17.2467 17.2467 21.5 12 21.5C6.75329 21.5 2.5 17.2467 2.5 12ZM10.8041 7.2383C11.3751 7.00177 12.0034 6.93989 12.6096 7.06047C13.2158 7.18105 13.7726 7.47867 14.2097 7.91571C14.6467 8.35275 14.9443 8.90957 15.0649 9.51576C15.1855 10.122 15.1236 10.7503 14.8871 11.3213C14.6506 11.8923 14.25 12.3804 13.7361 12.7238C13.3621 12.9737 12.9402 13.1388 12.5 13.2102V13.5004C12.5 13.7766 12.2761 14.0004 12 14.0004C11.7238 14.0004 11.5 13.7766 11.5 13.5004V12.7504C11.5 12.6178 11.5526 12.4906 11.6464 12.3969C11.7402 12.3031 11.8673 12.2504 12 12.2504C12.4202 12.2504 12.8311 12.1258 13.1805 11.8923C13.53 11.6588 13.8024 11.3269 13.9632 10.9386C14.124 10.5503 14.1661 10.1231 14.0841 9.71085C14.0021 9.29865 13.7997 8.92001 13.5026 8.62282C13.2054 8.32563 12.8267 8.12325 12.4145 8.04125C12.0023 7.95926 11.575 8.00134 11.1868 8.16218C10.7985 8.32301 10.4666 8.59538 10.2331 8.94484C9.99958 9.29429 9.87495 9.70514 9.87495 10.1254C9.87495 10.4016 9.65109 10.6254 9.37495 10.6254C9.09881 10.6254 8.87495 10.4016 8.87495 10.1254C8.87495 9.50736 9.05823 8.90317 9.40161 8.38926C9.74499 7.87536 10.233 7.47482 10.8041 7.2383ZM11 16.5C11 15.8648 11.5185 15.5 12 15.5C12.5366 15.5 13 15.9181 13 16.5C13 17.0768 12.5496 17.5 12 17.5C11.4228 17.5 11 17.0059 11 16.5Z" fill="white"/>
</svg>
