<svg width="24" height="24" viewBox="0 0 24 24" fill="none" xmlns="http://www.w3.org/2000/svg">
<path fill-rule="evenodd" clip-rule="evenodd" d="M10.5216 1.60462C13.0335 1.2474 15.5897 1.81175 17.7177 3.19331C17.9493 3.34368 18.0151 3.65334 17.8648 3.88495C17.7144 4.11656 17.4047 4.18242 17.1731 4.03205C15.2478 2.78206 12.935 2.27146 10.6624 2.59466C8.3898 2.91786 6.31107 4.05299 4.81058 5.79017C3.31009 7.52734 2.48935 9.74906 2.5001 12.0445C2.51086 14.34 3.35239 16.5539 4.86909 18.2769C6.3858 20 8.47508 21.1156 10.7506 21.4175C13.0262 21.7194 15.3341 21.1871 17.2476 19.9191C19.1611 18.6512 20.5508 16.7332 21.1597 14.52C21.7686 12.3067 21.5555 9.94786 20.5599 7.87954C20.4401 7.63072 20.5447 7.33192 20.7935 7.21215C21.0423 7.09238 21.3411 7.19699 21.4609 7.4458C22.5614 9.73184 22.7968 12.339 22.1238 14.7852C21.4508 17.2315 19.9149 19.3513 17.8 20.7527C15.685 22.1542 13.1342 22.7424 10.6191 22.4088C8.10404 22.0751 5.79483 20.8421 4.11847 18.9377C2.44212 17.0333 1.512 14.5863 1.50012 12.0492C1.48823 9.51212 2.39537 7.05654 4.0538 5.1365C5.71223 3.21646 8.00978 1.96184 10.5216 1.60462Z" fill="#FCFCFE"/>
<path fill-rule="evenodd" clip-rule="evenodd" d="M21.3567 4.64965C21.5502 4.84666 21.5474 5.16323 21.3504 5.35672L11.1685 15.3567C10.974 15.5478 10.6623 15.5478 10.4678 15.3567L6.64965 11.6067C6.45263 11.4132 6.44978 11.0967 6.64328 10.8996C6.83677 10.7026 7.15334 10.6998 7.35035 10.8933L10.8182 14.2992L20.6496 4.64328C20.8467 4.44978 21.1632 4.45263 21.3567 4.64965Z" fill="#FCFCFE"/>
</svg>
