<svg width="24" height="24" viewBox="0 0 24 24" fill="none" xmlns="http://www.w3.org/2000/svg">
<path fill-rule="evenodd" clip-rule="evenodd" d="M10.8754 3.60002C6.85752 3.60002 3.60039 6.85715 3.60039 10.875C3.60039 14.8929 6.85752 18.15 10.8754 18.15C14.8933 18.15 18.1504 14.8929 18.1504 10.875C18.1504 6.85715 14.8933 3.60002 10.8754 3.60002ZM2.40039 10.875C2.40039 6.19441 6.19478 2.40002 10.8754 2.40002C15.556 2.40002 19.3504 6.19441 19.3504 10.875C19.3504 12.9995 18.5687 14.9415 17.2771 16.4289L21.4241 20.5759C21.6584 20.8102 21.6584 21.1901 21.4241 21.4244C21.1898 21.6587 20.8099 21.6587 20.5756 21.4244L16.4286 17.2774C14.9413 18.5685 12.9996 19.35 10.8754 19.35C6.19478 19.35 2.40039 15.5556 2.40039 10.875Z" fill="white"/>
</svg>
