<svg width="24" height="24" viewBox="0 0 24 24" fill="none" xmlns="http://www.w3.org/2000/svg">
<path fill-rule="evenodd" clip-rule="evenodd" d="M17.6307 4.40676C17.1907 4.22458 16.7192 4.13087 16.243 4.13098C15.7668 4.13109 15.2953 4.22502 14.8555 4.4074C14.4156 4.58978 14.016 4.85704 13.6794 5.19391L13.6792 5.19408L11.8231 7.05023C11.6278 7.2455 11.3112 7.2455 11.116 7.05023C10.9207 6.85497 10.9207 6.53839 11.116 6.34313L12.972 4.48714C12.972 4.48708 12.9721 4.48703 12.9721 4.48697C13.4015 4.05725 13.9113 3.71632 14.4725 3.48366C15.0337 3.25096 15.6352 3.13112 16.2428 3.13098C16.8503 3.13084 17.4519 3.2504 18.0133 3.48283C18.5746 3.71526 19.0846 4.05601 19.5142 4.48561C19.9438 4.91521 20.2846 5.42524 20.517 5.98657C20.7494 6.54789 20.869 7.14951 20.8689 7.75706C20.8687 8.3646 20.7489 8.96617 20.5162 9.52738C20.2835 10.0885 19.9426 10.5983 19.5129 11.0277C19.5128 11.0278 19.5128 11.0278 19.5127 11.0279L16.8612 13.6794C16.4317 14.1088 15.9219 14.4495 15.3608 14.6819C14.7996 14.9144 14.1982 15.034 13.5908 15.034C12.9835 15.034 12.3821 14.9144 11.8209 14.6819C11.2598 14.4495 10.75 14.1088 10.3205 13.6794C10.1252 13.4841 10.1252 13.1675 10.3205 12.9723C10.5157 12.777 10.8323 12.777 11.0276 12.9723C11.3642 13.3089 11.7638 13.5759 12.2036 13.7581C12.6434 13.9402 13.1148 14.034 13.5908 14.034C14.0669 14.034 14.5383 13.9402 14.9781 13.7581C15.4179 13.5759 15.8175 13.3089 16.1541 12.9723L18.8058 10.3206L18.8059 10.3204C19.1428 9.98388 19.4101 9.58425 19.5924 9.14438C19.7748 8.7045 19.8687 8.23301 19.8689 7.75683C19.869 7.28064 19.7753 6.8091 19.5931 6.36914C19.4109 5.92919 19.1438 5.52943 18.8071 5.19272C18.4704 4.85601 18.0707 4.58893 17.6307 4.40676ZM10.4089 9.96597C9.93283 9.96597 9.46145 10.0597 9.02164 10.2419C8.58184 10.4241 8.18222 10.6911 7.84561 11.0277L5.19396 13.6794L5.19379 13.6795C4.85692 14.0161 4.58966 14.4157 4.40728 14.8556C4.2249 15.2955 4.13097 15.767 4.13086 16.2431C4.13075 16.7193 4.22446 17.1909 4.40663 17.6308C4.58881 18.0708 4.85588 18.4705 5.1926 18.8072C5.52931 19.144 5.92906 19.411 6.36902 19.5932C6.80898 19.7754 7.28052 19.8691 7.7567 19.869C8.23289 19.8689 8.70438 19.7749 9.14426 19.5926C9.58413 19.4102 9.98376 19.1429 10.3203 18.806L10.3205 18.8059L12.1766 16.9497C12.3719 16.7545 12.6885 16.7545 12.8837 16.9497C13.079 17.145 13.079 17.4616 12.8837 17.6568L11.0278 19.5128C11.0277 19.5129 11.0276 19.5129 11.0276 19.513C10.5982 19.9427 10.0884 20.2836 9.52726 20.5163C8.96604 20.749 8.36448 20.8688 7.75694 20.869C7.14939 20.8691 6.54777 20.7496 5.98645 20.5171C5.42512 20.2847 4.91509 19.9439 4.48549 19.5144C4.05589 19.0848 3.71514 18.5747 3.48271 18.0134C3.25028 17.4521 3.13072 16.8504 3.13086 16.2429C3.131 15.6354 3.25084 15.0338 3.48353 14.4726C3.7162 13.9114 4.05713 13.4016 4.48685 12.9723C4.4869 12.9722 4.48696 12.9721 4.48701 12.9721L7.1385 10.3206C7.56797 9.89113 8.07783 9.55046 8.63896 9.31803C9.20009 9.0856 9.8015 8.96597 10.4089 8.96597C11.0162 8.96597 11.6176 9.0856 12.1788 9.31803C12.7399 9.55046 13.2498 9.89113 13.6792 10.3206C13.8745 10.5159 13.8745 10.8324 13.6792 11.0277C13.484 11.223 13.1674 11.223 12.9721 11.0277C12.6355 10.6911 12.2359 10.4241 11.7961 10.2419C11.3563 10.0597 10.8849 9.96597 10.4089 9.96597Z" fill="white"/>
</svg>
