<svg width="24" height="24" viewBox="0 0 24 24" fill="none" xmlns="http://www.w3.org/2000/svg">
<path fill-rule="evenodd" clip-rule="evenodd" d="M16.5 2.75C15.1193 2.75 14 3.86929 14 5.25C14 5.74038 14.1412 6.19778 14.3851 6.58378C14.3893 6.58966 14.3933 6.59566 14.3972 6.60177C14.401 6.60766 14.4047 6.61359 14.4082 6.61957C14.8548 7.30039 15.6249 7.75 16.5 7.75C17.8807 7.75 19 6.63071 19 5.25C19 3.86929 17.8807 2.75 16.5 2.75ZM13.8564 7.54386C14.4981 8.28277 15.4445 8.75 16.5 8.75C18.433 8.75 20 7.183 20 5.25C20 3.317 18.433 1.75 16.5 1.75C14.567 1.75 13 3.317 13 5.25C13 5.76842 13.1127 6.26052 13.315 6.70312L8.64359 9.70614C8.00188 8.96723 7.0555 8.5 6 8.5C4.067 8.5 2.5 10.067 2.5 12C2.5 13.933 4.067 15.5 6 15.5C7.0555 15.5 8.00188 15.0328 8.64359 14.2939L13.315 17.2969C13.1127 17.7395 13 18.2316 13 18.75C13 20.683 14.567 22.25 16.5 22.25C18.433 22.25 20 20.683 20 18.75C20 16.817 18.433 15.25 16.5 15.25C15.4445 15.25 14.4981 15.7172 13.8564 16.4561L9.18503 13.4531C9.38729 13.0105 9.5 12.5184 9.5 12C9.5 11.4816 9.38729 10.9895 9.18503 10.5469L13.8564 7.54386ZM8.08919 10.6264C8.09343 10.6338 8.09787 10.6411 8.10253 10.6484C8.10733 10.6558 8.11229 10.6631 8.11741 10.6703C8.35979 11.0554 8.5 11.5113 8.5 12C8.5 12.4887 8.3598 12.9446 8.11744 13.3297C8.11231 13.3368 8.10733 13.3441 8.10252 13.3516C8.09786 13.3589 8.09341 13.3662 8.08916 13.3736C7.64212 14.0522 6.87336 14.5 6 14.5C4.61929 14.5 3.5 13.3807 3.5 12C3.5 10.6193 4.61929 9.5 6 9.5C6.87337 9.5 7.64214 9.94785 8.08919 10.6264ZM14.3852 17.416C14.3893 17.4102 14.3933 17.4043 14.3972 17.3982C14.401 17.3924 14.4046 17.3865 14.4081 17.3806C14.8547 16.6997 15.6248 16.25 16.5 16.25C17.8807 16.25 19 17.3693 19 18.75C19 20.1307 17.8807 21.25 16.5 21.25C15.1193 21.25 14 20.1307 14 18.75C14 18.2595 14.1412 17.8021 14.3852 17.416Z" fill="#FCFCFE"/>
</svg>
