<svg width="24" height="24" viewBox="0 0 24 24" fill="none" xmlns="http://www.w3.org/2000/svg">
<path fill-rule="evenodd" clip-rule="evenodd" d="M12 3.5C7.30558 3.5 3.5 7.30558 3.5 12C3.5 16.6944 7.30558 20.5 12 20.5C16.6944 20.5 20.5 16.6944 20.5 12C20.5 7.30558 16.6944 3.5 12 3.5ZM2.5 12C2.5 6.75329 6.75329 2.5 12 2.5C17.2467 2.5 21.5 6.75329 21.5 12C21.5 17.2467 17.2467 21.5 12 21.5C6.75329 21.5 2.5 17.2467 2.5 12ZM16.1482 13.8168C16.3873 13.955 16.469 14.2608 16.3308 14.4999C15.8915 15.2597 15.2601 15.8905 14.5 16.3291C13.7398 16.7677 12.8776 16.9986 12 16.9986C11.1224 16.9986 10.2602 16.7677 9.50007 16.3291C8.73989 15.8906 8.10847 15.2597 7.66919 14.5C7.53097 14.2609 7.61272 13.9551 7.85178 13.8169C8.09084 13.6786 8.39669 13.7604 8.53491 13.9994C8.88638 14.6073 9.39158 15.1121 9.99979 15.463C10.608 15.8139 11.2978 15.9986 12 15.9986C12.7022 15.9986 13.392 15.8138 14.0002 15.4629C14.6084 15.112 15.1136 14.6073 15.4651 13.9994C15.6033 13.7603 15.9091 13.6786 16.1482 13.8168Z" fill="#FCFCFE"/>
<path d="M15.375 11.25C15.9963 11.25 16.5 10.7463 16.5 10.125C16.5 9.50368 15.9963 9 15.375 9C14.7537 9 14.25 9.50368 14.25 10.125C14.25 10.7463 14.7537 11.25 15.375 11.25Z" fill="#FCFCFE"/>
<path d="M8.625 11.25C9.24632 11.25 9.75 10.7463 9.75 10.125C9.75 9.50368 9.24632 9 8.625 9C8.00368 9 7.5 9.50368 7.5 10.125C7.5 10.7463 8.00368 11.25 8.625 11.25Z" fill="#FCFCFE"/>
</svg>
