<svg width="24" height="24" viewBox="0 0 24 24" fill="none" xmlns="http://www.w3.org/2000/svg">
<path fill-rule="evenodd" clip-rule="evenodd" d="M11.7481 1.81811C11.9038 1.7273 12.0963 1.7273 12.252 1.81811L21.252 7.06811C21.4056 7.15772 21.5001 7.32217 21.5001 7.5C21.5001 7.67783 21.4056 7.84228 21.252 7.93189L12.252 13.1819C12.0963 13.2727 11.9038 13.2727 11.7481 13.1819L2.74815 7.93189C2.59454 7.84228 2.50008 7.67783 2.50008 7.5C2.50008 7.32217 2.59454 7.15772 2.74815 7.06811L11.7481 1.81811ZM3.9924 7.5L12.0001 12.1711L20.0078 7.5L12.0001 2.82885L3.9924 7.5ZM2.56819 11.7481C2.70733 11.5095 3.01349 11.429 3.25202 11.5681L12.0001 16.6711L20.7481 11.5681C20.9867 11.429 21.2928 11.5095 21.432 11.7481C21.5711 11.9866 21.4905 12.2927 21.252 12.4319L12.252 17.6819C12.0963 17.7727 11.9038 17.7727 11.7481 17.6819L2.74815 12.4319C2.50962 12.2927 2.42905 11.9866 2.56819 11.7481ZM2.56819 16.2481C2.70733 16.0095 3.01349 15.929 3.25202 16.0681L12.0001 21.1711L20.7481 16.0681C20.9867 15.929 21.2928 16.0095 21.432 16.2481C21.5711 16.4866 21.4905 16.7927 21.252 16.9319L12.252 22.1819C12.0963 22.2727 11.9038 22.2727 11.7481 22.1819L2.74815 16.9319C2.50962 16.7927 2.42905 16.4866 2.56819 16.2481Z" fill="#FCFCFE"/>
</svg>
