<svg width="24" height="24" viewBox="0 0 24 24" fill="none" xmlns="http://www.w3.org/2000/svg">
<path d="M18 13.125C18.6213 13.125 19.125 12.6213 19.125 12C19.125 11.3787 18.6213 10.875 18 10.875C17.3787 10.875 16.875 11.3787 16.875 12C16.875 12.6213 17.3787 13.125 18 13.125Z" fill="#FCFCFE"/>
<path d="M12 13.125C12.6213 13.125 13.125 12.6213 13.125 12C13.125 11.3787 12.6213 10.875 12 10.875C11.3787 10.875 10.875 11.3787 10.875 12C10.875 12.6213 11.3787 13.125 12 13.125Z" fill="#FCFCFE"/>
<path d="M6 13.125C6.62132 13.125 7.125 12.6213 7.125 12C7.125 11.3787 6.62132 10.875 6 10.875C5.37868 10.875 4.875 11.3787 4.875 12C4.875 12.6213 5.37868 13.125 6 13.125Z" fill="#FCFCFE"/>
<path fill-rule="evenodd" clip-rule="evenodd" d="M4.375 12C4.375 11.1025 5.10254 10.375 6 10.375C6.89746 10.375 7.625 11.1025 7.625 12C7.625 12.8975 6.89746 13.625 6 13.625C5.10254 13.625 4.375 12.8975 4.375 12ZM6 11.375C5.65482 11.375 5.375 11.6548 5.375 12C5.375 12.3452 5.65482 12.625 6 12.625C6.34518 12.625 6.625 12.3452 6.625 12C6.625 11.6548 6.34518 11.375 6 11.375ZM10.375 12C10.375 11.1025 11.1025 10.375 12 10.375C12.8975 10.375 13.625 11.1025 13.625 12C13.625 12.8975 12.8975 13.625 12 13.625C11.1025 13.625 10.375 12.8975 10.375 12ZM12 11.375C11.6548 11.375 11.375 11.6548 11.375 12C11.375 12.3452 11.6548 12.625 12 12.625C12.3452 12.625 12.625 12.3452 12.625 12C12.625 11.6548 12.3452 11.375 12 11.375ZM16.375 12C16.375 11.1025 17.1025 10.375 18 10.375C18.8975 10.375 19.625 11.1025 19.625 12C19.625 12.8975 18.8975 13.625 18 13.625C17.1025 13.625 16.375 12.8975 16.375 12ZM18 11.375C17.6548 11.375 17.375 11.6548 17.375 12C17.375 12.3452 17.6548 12.625 18 12.625C18.3452 12.625 18.625 12.3452 18.625 12C18.625 11.6548 18.3452 11.375 18 11.375Z" fill="#FCFCFE"/>
</svg>
