<svg width="24" height="24" viewBox="0 0 24 24" fill="none" xmlns="http://www.w3.org/2000/svg">
<path fill-rule="evenodd" clip-rule="evenodd" d="M8.33591 2.33579C8.71098 1.96071 9.21969 1.75 9.75012 1.75H14.2501C14.7806 1.75 15.2893 1.96071 15.6643 2.33579C16.0394 2.71086 16.2501 3.21957 16.2501 3.75V4.75L18.7494 4.75C18.7496 4.75 18.7491 4.75 18.7494 4.75C18.7496 4.75 18.7506 4.75 18.7509 4.75L20.2498 4.75C20.5259 4.75 20.7498 4.97386 20.7498 5.25C20.7498 5.52614 20.5259 5.75 20.2498 5.75L19.2501 5.75V19.5C19.2501 19.8315 19.1184 20.1495 18.884 20.3839C18.6496 20.6183 18.3316 20.75 18.0001 20.75H6.00012C5.6686 20.75 5.35066 20.6183 5.11624 20.3839C4.88182 20.1495 4.75012 19.8315 4.75012 19.5V5.75001L3.74976 5.75001C3.47361 5.75001 3.24976 5.52615 3.24976 5.25001C3.24976 4.97386 3.47361 4.75001 3.74976 4.75001L5.24772 4.75001C5.24852 4.75 5.24932 4.75 5.25012 4.75C5.25092 4.75 5.25172 4.75 5.25252 4.75001L7.75012 4.75V3.75C7.75012 3.21957 7.96084 2.71086 8.33591 2.33579ZM5.75012 5.75001V19.5C5.75012 19.5663 5.77646 19.6299 5.82335 19.6768C5.87023 19.7237 5.93382 19.75 6.00012 19.75H18.0001C18.0664 19.75 18.13 19.7237 18.1769 19.6768C18.2238 19.6299 18.2501 19.5663 18.2501 19.5V5.75L5.75012 5.75001ZM15.2501 4.75L8.75012 4.75V3.75C8.75012 3.48478 8.85548 3.23043 9.04302 3.04289C9.23055 2.85536 9.48491 2.75 9.75012 2.75H14.2501C14.5153 2.75 14.7697 2.85536 14.9572 3.04289C15.1448 3.23043 15.2501 3.48478 15.2501 3.75V4.75ZM9.75012 9.25C10.0263 9.25 10.2501 9.47386 10.2501 9.75V15.75C10.2501 16.0261 10.0263 16.25 9.75012 16.25C9.47398 16.25 9.25012 16.0261 9.25012 15.75V9.75C9.25012 9.47386 9.47398 9.25 9.75012 9.25ZM14.2501 9.25C14.5263 9.25 14.7501 9.47386 14.7501 9.75V15.75C14.7501 16.0261 14.5263 16.25 14.2501 16.25C13.974 16.25 13.7501 16.0261 13.7501 15.75V9.75C13.7501 9.47386 13.974 9.25 14.2501 9.25Z" fill="#FCFCFE"/>
</svg>
