<svg width="24" height="24" viewBox="0 0 24 24" fill="none" xmlns="http://www.w3.org/2000/svg">
<g clip-path="url(#clip0_4248_43015)">
<path fill-rule="evenodd" clip-rule="evenodd" d="M12 3.25C12.2761 3.25 12.5 3.47386 12.5 3.75V13.0431L15.584 9.95993C15.7793 9.7647 16.0959 9.76474 16.2911 9.96002C16.4863 10.1553 16.4863 10.4719 16.291 10.6671L12.3535 14.6036C12.1583 14.7988 11.8417 14.7988 11.6465 14.6036L7.70899 10.6671C7.51371 10.4719 7.51366 10.1553 7.7089 9.96002C7.90414 9.76474 8.22072 9.7647 8.41601 9.95993L11.5 13.0431V3.75C11.5 3.47386 11.7239 3.25 12 3.25ZM3.75 13.75C4.02614 13.75 4.25 13.9739 4.25 14.25V19.5C4.25 19.5663 4.27634 19.6299 4.32322 19.6768C4.37011 19.7237 4.4337 19.75 4.5 19.75H19.5C19.5663 19.75 19.6299 19.7237 19.6768 19.6768C19.7237 19.6299 19.75 19.5663 19.75 19.5V14.25C19.75 13.9739 19.9739 13.75 20.25 13.75C20.5261 13.75 20.75 13.9739 20.75 14.25V19.5C20.75 19.8315 20.6183 20.1495 20.3839 20.3839C20.1495 20.6183 19.8315 20.75 19.5 20.75H4.5C4.16848 20.75 3.85054 20.6183 3.61612 20.3839C3.3817 20.1495 3.25 19.8315 3.25 19.5V14.25C3.25 13.9739 3.47386 13.75 3.75 13.75Z" fill="#8B97AE"/>
</g>
<defs>
<clipPath id="clip0_4248_43015">
<rect width="24" height="24" fill="white"/>
</clipPath>
</defs>
</svg>
