<svg width="24" height="24" viewBox="0 0 24 24" fill="none" xmlns="http://www.w3.org/2000/svg">
<path fill-rule="evenodd" clip-rule="evenodd" d="M11.9999 3.5C8.96233 3.5 6.49989 5.96243 6.49989 9C6.49989 12.0376 8.96242 14.5 12 14.5C15.0376 14.5 17.4999 12.0376 17.4999 9C17.4999 5.96243 15.0375 3.5 11.9999 3.5ZM14.8073 14.8642C16.9916 13.8166 18.4999 11.5844 18.4999 9C18.4999 5.41015 15.5897 2.5 11.9999 2.5C8.41004 2.5 5.49989 5.41015 5.49989 9C5.49989 11.5844 7.00823 13.8165 9.19259 14.8641C8.25373 15.1119 7.34777 15.4838 6.49957 15.9734C4.82713 16.9386 3.43815 18.327 2.47217 19.999C2.33403 20.2381 2.41588 20.5439 2.65499 20.6821C2.89409 20.8202 3.19991 20.7384 3.33805 20.4992C4.21625 18.9792 5.47899 17.717 6.99944 16.8395C8.51989 15.9619 10.2445 15.5 12 15.5C13.7555 15.5 15.4801 15.962 17.0005 16.8396C18.521 17.7171 19.7837 18.9793 20.6618 20.4994C20.8 20.7385 21.1058 20.8204 21.3449 20.6823C21.584 20.5441 21.6659 20.2383 21.5277 19.9992C20.5618 18.3272 19.1728 16.9388 17.5004 15.9735C16.6522 15.4839 15.7462 15.1119 14.8073 14.8642Z" fill="#FCFCFE"/>
</svg>
