<svg width="24" height="24" viewBox="0 0 24 24" fill="none" xmlns="http://www.w3.org/2000/svg">
<path fill-rule="evenodd" clip-rule="evenodd" d="M12 3.5C7.30558 3.5 3.5 7.30558 3.5 12C3.5 14.2834 4.40039 16.3566 5.8655 17.8837C6.45713 16.9456 7.2578 16.153 8.20829 15.5701C8.6953 15.2714 9.21353 15.0328 9.75169 14.8573C8.54967 14.1065 7.75 12.7716 7.75 11.25C7.75 8.90279 9.65279 7 12 7C14.3472 7 16.25 8.90279 16.25 11.25C16.25 12.7716 15.4503 14.1065 14.2483 14.8573C14.7864 15.0328 15.3047 15.2714 15.7917 15.5701C16.7422 16.153 17.5429 16.9456 18.1345 17.8837C19.5996 16.3566 20.5 14.2834 20.5 12C20.5 7.30558 16.6944 3.5 12 3.5ZM18.3574 19.0594C20.287 17.3206 21.5 14.8019 21.5 12C21.5 6.75329 17.2467 2.5 12 2.5C6.75329 2.5 2.5 6.75329 2.5 12C2.5 14.8011 3.71233 17.3191 5.64092 19.0579C5.64449 19.0612 5.64812 19.0645 5.6518 19.0677C7.3343 20.5799 9.5597 21.5 12 21.5C14.4411 21.5 16.6672 20.5793 18.3499 19.0662C18.3524 19.0639 18.3549 19.0617 18.3574 19.0594ZM17.3858 18.5763C16.8677 17.6979 16.1416 16.9577 15.2689 16.4225C14.2853 15.8193 13.1539 15.5 12 15.5C10.8461 15.5 9.71472 15.8193 8.73109 16.4226C7.85844 16.9578 7.13227 17.6979 6.61424 18.5763C8.08046 19.7785 9.95598 20.5 12 20.5C14.044 20.5 15.9195 19.7785 17.3858 18.5763ZM12 14.5C13.7949 14.5 15.25 13.0449 15.25 11.25C15.25 9.45507 13.7949 8 12 8C10.2051 8 8.75 9.45507 8.75 11.25C8.75 13.0449 10.2051 14.5 12 14.5Z" fill="#FCFCFE"/>
</svg>
