<svg width="32" height="32" viewBox="0 0 32 32" fill="none" xmlns="http://www.w3.org/2000/svg"><path d="M17.128 2.745 C 16.422 3.064,16.077 3.815,16.291 4.564 L 16.381 4.880 21.189 9.693 L 25.998 14.506 14.026 14.519 L 2.053 14.533 1.813 14.647 C 0.676 15.184,0.676 16.816,1.813 17.353 L 2.053 17.467 13.987 17.481 C 20.550 17.488,25.920 17.512,25.920 17.534 C 25.920 17.556,23.734 19.758,21.061 22.427 C 17.160 26.323,16.177 27.333,16.075 27.547 C 15.803 28.115,15.951 28.814,16.436 29.260 C 16.732 29.531,16.991 29.624,17.440 29.621 C 18.124 29.617,17.702 30.001,24.544 23.158 C 31.429 16.272,31.039 16.702,31.039 16.000 C 31.039 15.300,31.403 15.702,24.784 9.078 C 21.362 5.652,18.675 3.005,18.508 2.893 C 18.238 2.713,18.182 2.697,17.761 2.681 C 17.439 2.669,17.255 2.688,17.128 2.745 " stroke="none" fill-rule="evenodd" fill="black"></path></svg>