<svg width="32" height="32" viewBox="0 0 32 32" fill="none" xmlns="http://www.w3.org/2000/svg">
<path fill-rule="evenodd" clip-rule="evenodd" d="M24.5566 9L7.44392 9L7.44392 9L5.97621 26.7174C5.92792 27.3003 6.38795 27.8 6.97279 27.8H25.0277C25.6126 27.8 26.0726 27.3003 26.0243 26.7174L24.5566 9ZM7.44392 8C6.92365 8 6.49029 8.39894 6.44734 8.91744L4.97962 26.6349C4.88305 27.8006 5.8031 28.8 6.97279 28.8H25.0277C26.1974 28.8 27.1175 27.8006 27.0209 26.6349L25.5532 8.91744C25.5102 8.39894 25.0769 8 24.5566 8H7.44392Z" fill="white"/>
<path fill-rule="evenodd" clip-rule="evenodd" d="M12.2591 5.30639C11.5645 6.20211 11.3301 7.2879 11.3301 8.00001V12C11.3301 12.2761 11.1062 12.5 10.8301 12.5C10.5539 12.5 10.3301 12.2761 10.3301 12V8.00001C10.3301 7.11212 10.6125 5.79791 11.4688 4.69363C12.3429 3.56632 13.7837 2.70001 15.9993 2.70001C18.2149 2.70001 19.6557 3.56632 20.5298 4.69363C21.386 5.79791 21.6685 7.11212 21.6685 8.00001V12C21.6685 12.2761 21.4446 12.5 21.1685 12.5C20.8923 12.5 20.6685 12.2761 20.6685 12V8.00001C20.6685 7.2879 20.434 6.20211 19.7395 5.30639C19.0628 4.43371 17.9191 3.70001 15.9993 3.70001C14.0795 3.70001 12.9357 4.43371 12.2591 5.30639Z" fill="white"/>
</svg>
