<svg width="32" height="32" viewBox="0 0 32 32" fill="none" xmlns="http://www.w3.org/2000/svg">
<path d="M1 25H9.40318V23.1575H3.86472C4.62865 20.1339 9.30769 19.4724 9.30769 16.1181C9.30769 14.3228 8.06631 13 5.44032 13C3.81698 13 2.38461 13.4724 1.42971 13.9449L2.00266 15.6457C2.86207 15.2205 3.86473 14.8425 5.10611 14.8425C6.06101 14.8425 6.96817 15.2677 6.96817 16.3543C6.96817 18.811 1.47745 19 1 25ZM9.64191 22.0709H15.0371V25H17.1857V22.0709H19V20.2756H17.1857V13H15.6101L9.64191 20.6535V22.0709ZM12.0769 20.3701L15.1326 16.3071C15.1326 16.6378 15.0371 17.6772 15.0371 18.622V20.3228H13.6048C13.1751 20.3228 12.3634 20.3701 12.0769 20.3701Z" fill="white"/>
<path fill-rule="evenodd" clip-rule="evenodd" d="M1.38575 13.8552C2.35121 13.3776 3.79874 12.9 5.44071 12.9C6.76952 12.9 7.76255 13.2347 8.42475 13.8103C9.08856 14.3874 9.40808 15.1963 9.40808 16.1181C9.40808 17.85 8.19552 18.8813 6.93362 19.8414C6.83337 19.9177 6.7328 19.9935 6.63239 20.0692C6.09559 20.4738 5.56319 20.8752 5.10815 21.3248C4.60052 21.8264 4.19585 22.3821 3.99618 23.0575H9.40357C9.4588 23.0575 9.50357 23.1022 9.50357 23.1575V25C9.50357 25.0552 9.4588 25.1 9.40357 25.1H1.00039C0.972491 25.1 0.945859 25.0883 0.926929 25.0678C0.907999 25.0473 0.898493 25.0199 0.900706 24.9921C1.14249 21.9537 2.65744 20.3833 4.10246 19.2692C4.39863 19.0409 4.69246 18.8312 4.9706 18.6328C5.03045 18.5901 5.08958 18.5479 5.14785 18.5061C5.47801 18.2696 5.78028 18.0475 6.03733 17.8226C6.55196 17.3723 6.86856 16.9251 6.86856 16.3543C6.86856 15.8434 6.65751 15.4962 6.3383 15.2729C6.01437 15.0463 5.57124 14.9425 5.1065 14.9425C3.88665 14.9425 2.89987 15.3135 2.04739 15.7353C2.02153 15.7481 1.99139 15.7491 1.96473 15.738C1.93807 15.727 1.91749 15.7049 1.90828 15.6776L1.33533 13.9768C1.31935 13.9294 1.3409 13.8774 1.38575 13.8552ZM1.55291 13.9962L2.06145 15.5058C2.90541 15.0978 3.89316 14.7425 5.1065 14.7425C5.59665 14.7425 6.08455 14.8513 6.45293 15.109C6.82603 15.37 7.06856 15.7786 7.06856 16.3543C7.06856 17.0119 6.69882 17.5096 6.16903 17.9731C5.90386 18.2052 5.59439 18.4323 5.26432 18.6687C5.20545 18.7109 5.14591 18.7534 5.08581 18.7963C4.80777 18.9947 4.51753 19.2018 4.22458 19.4276C2.82222 20.5088 1.37165 22.0091 1.10927 24.9H9.30357V23.2575H3.86511C3.83427 23.2575 3.80516 23.2432 3.78622 23.2189C3.76727 23.1946 3.76061 23.1629 3.76816 23.133C3.96515 22.3533 4.41388 21.7297 4.96757 21.1826C5.43301 20.7226 5.97794 20.3119 6.51454 19.9075C6.61434 19.8323 6.71386 19.7573 6.81252 19.6822C8.08112 18.7171 9.20808 17.7405 9.20808 16.1181C9.20808 15.2446 8.90691 14.4945 8.29354 13.9613C7.67855 13.4267 6.73789 13.1 5.44071 13.1C3.87984 13.1 2.49639 13.5421 1.55291 13.9962ZM15.5316 12.9385C15.5506 12.9142 15.5797 12.9 15.6105 12.9H17.1861C17.2413 12.9 17.2861 12.9448 17.2861 13V20.1756H19.0004C19.0556 20.1756 19.1004 20.2204 19.1004 20.2756V22.0709C19.1004 22.1261 19.0556 22.1709 19.0004 22.1709H17.2861V25C17.2861 25.0552 17.2413 25.1 17.1861 25.1H15.0375C14.9823 25.1 14.9375 25.0552 14.9375 25V22.1709H9.6423C9.58707 22.1709 9.5423 22.1261 9.5423 22.0709V20.6535C9.5423 20.6313 9.54974 20.6096 9.56344 20.592L15.5316 12.9385ZM15.6593 13.1L9.7423 20.6879V21.9709H15.0375C15.0928 21.9709 15.1375 22.0156 15.1375 22.0709V24.9H17.0861V22.0709C17.0861 22.0156 17.1308 21.9709 17.1861 21.9709H18.9004V20.3756H17.1861C17.1308 20.3756 17.0861 20.3308 17.0861 20.2756V13.1H15.6593ZM15.1647 16.2122C15.2055 16.2259 15.233 16.2641 15.233 16.3071C15.233 16.4333 15.2195 16.659 15.2029 16.9381C15.1972 17.0331 15.1911 17.1343 15.1851 17.2399C15.1613 17.6588 15.1375 18.1526 15.1375 18.622V20.3228C15.1375 20.3781 15.0928 20.4228 15.0375 20.4228H13.6052C13.3927 20.4228 13.0846 20.4345 12.7916 20.4464C12.7618 20.4476 12.7323 20.4488 12.703 20.45C12.4454 20.4604 12.2083 20.4701 12.0773 20.4701C12.0394 20.4701 12.0048 20.4486 11.9878 20.4147C11.9709 20.3808 11.9746 20.3403 11.9974 20.31L15.0531 16.247C15.079 16.2126 15.1239 16.1986 15.1647 16.2122ZM12.2808 20.2659C12.399 20.2621 12.5429 20.2563 12.6962 20.2501C12.725 20.2489 12.7541 20.2477 12.7835 20.2465C13.0754 20.2347 13.3879 20.2228 13.6052 20.2228H14.9375V18.622C14.9375 18.1466 14.9615 17.6483 14.9854 17.2286C14.9917 17.1189 14.9979 17.0151 15.0036 16.9186C15.0101 16.8099 15.0161 16.7104 15.0209 16.6225L12.2808 20.2659Z" fill="white"/>
<path fill-rule="evenodd" clip-rule="evenodd" d="M25 7.5C21.9624 7.5 19.5 9.96243 19.5 13C19.5 16.0376 21.9624 18.5 25 18.5C28.0376 18.5 30.5 16.0376 30.5 13C30.5 9.96243 28.0376 7.5 25 7.5ZM18.5 13C18.5 9.41015 21.4101 6.5 25 6.5C28.5899 6.5 31.5 9.41015 31.5 13C31.5 16.5899 28.5899 19.5 25 19.5C21.4101 19.5 18.5 16.5899 18.5 13Z" fill="white"/>
<path fill-rule="evenodd" clip-rule="evenodd" d="M25 8.5C25.2761 8.5 25.5 8.72386 25.5 9V12.5H29C29.2761 12.5 29.5 12.7239 29.5 13C29.5 13.2761 29.2761 13.5 29 13.5H25C24.7239 13.5 24.5 13.2761 24.5 13V9C24.5 8.72386 24.7239 8.5 25 8.5Z" fill="white"/>
</svg>
