<svg width="32" height="32" viewBox="0 0 32 32" fill="none" xmlns="http://www.w3.org/2000/svg"><path d="M28.736 5.553 C 28.598 5.574,28.389 5.644,28.271 5.710 C 28.145 5.782,24.883 9.094,20.256 13.851 C 15.964 18.262,12.248 22.091,11.997 22.358 L 11.541 22.845 7.793 18.779 C 5.731 16.544,3.950 14.646,3.835 14.562 C 3.132 14.053,2.076 14.320,1.684 15.105 C 1.442 15.591,1.517 16.307,1.852 16.714 C 1.921 16.798,3.909 18.962,6.268 21.522 C 11.056 26.718,10.777 26.454,11.490 26.453 C 12.218 26.452,11.468 27.169,21.287 17.074 C 27.914 10.259,30.198 7.879,30.312 7.669 C 30.451 7.409,30.462 7.351,30.442 6.933 C 30.420 6.461,30.367 6.323,30.084 6.007 C 29.757 5.643,29.261 5.476,28.736 5.553 " stroke="none" fill-rule="evenodd" fill="black"></path></svg>