<svg width="32" height="32" viewBox="0 0 32 32" fill="none" xmlns="http://www.w3.org/2000/svg">
<path fill-rule="evenodd" clip-rule="evenodd" d="M16 3.5C11.0294 3.5 7 7.52944 7 12.5V13.5H8C8.27614 13.5 8.5 13.7239 8.5 14V21C8.5 21.2761 8.27614 21.5 8 21.5H6.5C4.29086 21.5 2.5 19.7091 2.5 17.5C2.5 15.4602 4.02684 13.777 6 13.5309V12.5C6 6.97715 10.4772 2.5 16 2.5C21.5228 2.5 26 6.97715 26 12.5V13.5309C27.9732 13.777 29.5 15.4602 29.5 17.5C29.5 19.5398 27.9732 21.223 26 21.4691V21.5C26 24.6646 23.5501 27.2569 20.4434 27.4839C20.1652 28.6453 18.8805 29.5 17 29.5C14.8667 29.5 13.5 28.4 13.5 27C13.5 25.6 14.8667 24.5 17 24.5C18.8616 24.5 20.1395 25.3377 20.4347 26.4814C22.9926 26.2611 25 24.115 25 21.5H24C23.7239 21.5 23.5 21.2761 23.5 21V14C23.5 13.7239 23.7239 13.5 24 13.5H25V12.5C25 7.52944 20.9706 3.5 16 3.5ZM25.5 14.5H24.5V20.5H25.5C27.1569 20.5 28.5 19.1569 28.5 17.5C28.5 15.8431 27.1569 14.5 25.5 14.5ZM19.5 27C19.5 26.4 18.8667 25.5 17 25.5C15.1333 25.5 14.5 26.4 14.5 27C14.5 27.6 15.1333 28.5 17 28.5C18.8667 28.5 19.5 27.6 19.5 27ZM6.5 14.5C4.84315 14.5 3.5 15.8431 3.5 17.5C3.5 19.1569 4.84315 20.5 6.5 20.5H7.5V14.5H6.5Z" fill="white"/>
</svg>
