<svg width="32" height="32" viewBox="0 0 32 32" fill="none" xmlns="http://www.w3.org/2000/svg">
<path fill-rule="evenodd" clip-rule="evenodd" d="M3.5 4C3.5 3.72386 3.72386 3.5 4 3.5H21C21.2761 3.5 21.5 3.72386 21.5 4V11.5556H20.5V4.5H4.5V20.5H11.5556V21.5H4C3.72386 21.5 3.5 21.2761 3.5 21V4Z" fill="white"/>
<path fill-rule="evenodd" clip-rule="evenodd" d="M27.5 11.5H20.4444V10.5H28C28.2761 10.5 28.5 10.7239 28.5 11V28C28.5 28.2761 28.2761 28.5 28 28.5H11C10.7239 28.5 10.5 28.2761 10.5 28V20.4444H11.5V27.5H27.5V11.5Z" fill="white"/>
<path fill-rule="evenodd" clip-rule="evenodd" d="M10.5 11C10.5 10.7239 10.7239 10.5 11 10.5H13.5C13.7761 10.5 14 10.7239 14 11C14 11.2761 13.7761 11.5 13.5 11.5H11.5V13.5C11.5 13.7761 11.2761 14 11 14C10.7239 14 10.5 13.7761 10.5 13.5V11ZM18 11C18 10.7239 18.2239 10.5 18.5 10.5H21C21.2761 10.5 21.5 10.7239 21.5 11V13.5C21.5 13.7761 21.2761 14 21 14C20.7239 14 20.5 13.7761 20.5 13.5V11.5H18.5C18.2239 11.5 18 11.2761 18 11ZM11 18C11.2761 18 11.5 18.2239 11.5 18.5V20.5H13.5C13.7761 20.5 14 20.7239 14 21C14 21.2761 13.7761 21.5 13.5 21.5H11C10.7239 21.5 10.5 21.2761 10.5 21V18.5C10.5 18.2239 10.7239 18 11 18ZM21 18C21.2761 18 21.5 18.2239 21.5 18.5V21C21.5 21.2761 21.2761 21.5 21 21.5H18.5C18.2239 21.5 18 21.2761 18 21C18 20.7239 18.2239 20.5 18.5 20.5H20.5V18.5C20.5 18.2239 20.7239 18 21 18Z" fill="white"/>
</svg>
