<svg width="32" height="32" viewBox="0 0 32 32" fill="none" xmlns="http://www.w3.org/2000/svg">
<path fill-rule="evenodd" clip-rule="evenodd" d="M6.5 2C6.5 1.17157 7.17157 0.5 8 0.5H24C24.8284 0.5 25.5 1.17157 25.5 2V30C25.5 30.8284 24.8284 31.5 24 31.5H8C7.17157 31.5 6.5 30.8284 6.5 30V2ZM8 1.5C7.72386 1.5 7.5 1.72386 7.5 2V26.2143H24.5V2C24.5 1.72386 24.2761 1.5 24 1.5H8ZM24.5 27.2143H7.5V30C7.5 30.2761 7.72386 30.5 8 30.5H24C24.2761 30.5 24.5 30.2761 24.5 30V27.2143ZM14.5 28.8571C14.5 28.581 14.7239 28.3571 15 28.3571H17C17.2761 28.3571 17.5 28.581 17.5 28.8571C17.5 29.1333 17.2761 29.3571 17 29.3571H15C14.7239 29.3571 14.5 29.1333 14.5 28.8571Z" fill="white"/>
<path fill-rule="evenodd" clip-rule="evenodd" d="M9.5 6C9.5 5.72386 9.72386 5.5 10 5.5H22C22.2761 5.5 22.5 5.72386 22.5 6C22.5 6.27614 22.2761 6.5 22 6.5H10C9.72386 6.5 9.5 6.27614 9.5 6ZM9.5 10C9.5 9.72386 9.72386 9.5 10 9.5H18C18.2761 9.5 18.5 9.72386 18.5 10C18.5 10.2761 18.2761 10.5 18 10.5H10C9.72386 10.5 9.5 10.2761 9.5 10ZM9.5 14C9.5 13.7239 9.72386 13.5 10 13.5H20C20.2761 13.5 20.5 13.7239 20.5 14C20.5 14.2761 20.2761 14.5 20 14.5H10C9.72386 14.5 9.5 14.2761 9.5 14ZM9.5 18C9.5 17.7239 9.72386 17.5 10 17.5H14C14.2761 17.5 14.5 17.7239 14.5 18C14.5 18.2761 14.2761 18.5 14 18.5H10C9.72386 18.5 9.5 18.2761 9.5 18ZM9.5 22C9.5 21.7239 9.72386 21.5 10 21.5H13C13.2761 21.5 13.5 21.7239 13.5 22C13.5 22.2761 13.2761 22.5 13 22.5H10C9.72386 22.5 9.5 22.2761 9.5 22Z" fill="white"/>
</svg>
