<svg width="32" height="32" viewBox="0 0 32 32" fill="none" xmlns="http://www.w3.org/2000/svg">
<path fill-rule="evenodd" clip-rule="evenodd" d="M13.5 9C13.5 8.72386 13.7239 8.5 14 8.5H26C26.2761 8.5 26.5 8.72386 26.5 9C26.5 9.27614 26.2761 9.5 26 9.5H14C13.7239 9.5 13.5 9.27614 13.5 9ZM13.5 13C13.5 12.7239 13.7239 12.5 14 12.5H22C22.2761 12.5 22.5 12.7239 22.5 13C22.5 13.2761 22.2761 13.5 22 13.5H14C13.7239 13.5 13.5 13.2761 13.5 13ZM13.5 17C13.5 16.7239 13.7239 16.5 14 16.5H24C24.2761 16.5 24.5 16.7239 24.5 17C24.5 17.2761 24.2761 17.5 24 17.5H14C13.7239 17.5 13.5 17.2761 13.5 17ZM13.5 21C13.5 20.7239 13.7239 20.5 14 20.5H18C18.2761 20.5 18.5 20.7239 18.5 21C18.5 21.2761 18.2761 21.5 18 21.5H14C13.7239 21.5 13.5 21.2761 13.5 21Z" fill="white"/>
<path fill-rule="evenodd" clip-rule="evenodd" d="M1.5 5C1.5 4.72386 1.72386 4.5 2 4.5H30C30.2761 4.5 30.5 4.72386 30.5 5V25C30.5 25.2761 30.2761 25.5 30 25.5H19.6889V28.5H21.3149C21.591 28.5 21.8149 28.7239 21.8149 29C21.8149 29.2761 21.591 29.5 21.3149 29.5H11.7482C11.4721 29.5 11.2482 29.2761 11.2482 29C11.2482 28.7239 11.4721 28.5 11.7482 28.5H13.3741V25.5H2C1.72386 25.5 1.5 25.2761 1.5 25V5ZM14.3741 25.5V28.5H18.6889V25.5H14.3741ZM2.5 5.5V24.5H29.5V5.5H2.5Z" fill="white"/>
<path fill-rule="evenodd" clip-rule="evenodd" d="M5.5 9C5.5 8.72386 5.72386 8.5 6 8.5H10C10.2761 8.5 10.5 8.72386 10.5 9V21C10.5 21.2761 10.2761 21.5 10 21.5H6C5.72386 21.5 5.5 21.2761 5.5 21V9ZM6.5 9.5V20.5H9.5V9.5H6.5Z" fill="white"/>
</svg>
