<svg width="32" height="32" viewBox="0 0 32 32" fill="none" xmlns="http://www.w3.org/2000/svg">
<path fill-rule="evenodd" clip-rule="evenodd" d="M22.2889 6.59191C22.4213 6.68564 22.5 6.8378 22.5 7.00003V24C22.5 24.1655 22.4181 24.3203 22.2813 24.4134C22.1444 24.5065 21.9704 24.5258 21.8164 24.4651L10.9049 20.1585H7.41508L6.49146 25.092C6.44718 25.3286 6.24066 25.5 6 25.5H4C3.72386 25.5 3.5 25.2762 3.5 25V10.878C3.5 10.6019 3.72386 10.378 4 10.378H10.9144L21.8338 6.52848C21.9868 6.47454 22.1564 6.49819 22.2889 6.59191ZM10.5 11.378H4.5V19.1585H10.5V11.378ZM11.5 19.3183L21.5 23.2651V7.70647L11.5 11.2319V19.3183ZM4.5 20.1585V24.5H5.58492L6.39771 20.1585H4.5Z" fill="white"/>
<path fill-rule="evenodd" clip-rule="evenodd" d="M28.4696 9.82789C28.5646 10.0872 28.4315 10.3744 28.1723 10.4695L25.1723 11.5695C24.913 11.6645 24.6258 11.5314 24.5307 11.2721C24.4356 11.0129 24.5687 10.7256 24.828 10.6306L27.828 9.53058C28.0873 9.43551 28.3745 9.56862 28.4696 9.82789ZM24.5001 15.5C24.5001 15.2239 24.724 15 25.0001 15H28.0001C28.2763 15 28.5001 15.2239 28.5001 15.5C28.5001 15.7762 28.2763 16 28.0001 16H25.0001C24.724 16 24.5001 15.7762 24.5001 15.5ZM24.5307 19.7279C24.6258 19.4686 24.913 19.3355 25.1723 19.4306L28.1723 20.5306C28.4315 20.6256 28.5646 20.9129 28.4696 21.1721C28.3745 21.4314 28.0873 21.5645 27.828 21.4695L24.828 20.3695C24.5687 20.2744 24.4356 19.9872 24.5307 19.7279Z" fill="white"/>
</svg>
