<svg width="27" height="30" viewBox="0 0 27 30" fill="none" xmlns="http://www.w3.org/2000/svg">
<g clip-path="url(#clip0_1_8)">
<path fill-rule="evenodd" clip-rule="evenodd" d="M16.1068 1.2378C16.2273 0.514565 16.8578 -0.00999832 17.58 -0.00999832H18.99C19.7249 -0.00999832 20.3424 0.516969 20.463 1.23649C20.463 1.23693 20.4631 1.23737 20.4632 1.2378L20.6013 2.04467C20.8218 2.12079 21.037 2.20994 21.2453 2.30859L21.9306 1.82225L21.9317 1.82152C22.1868 1.64139 22.4778 1.55 22.79 1.55C23.193 1.55 23.5601 1.70298 23.8436 1.98645L24.8413 2.98417C25.3696 3.50013 25.4267 4.31466 25.007 4.90041C25.0067 4.90081 25.0064 4.90121 25.0062 4.90161L24.5197 5.58711C24.6107 5.78275 24.6934 5.98224 24.7676 6.18692L25.5531 6.32017C25.5763 6.32078 25.5994 6.323 25.6222 6.3268C26.3526 6.44854 26.86 7.08517 26.86 7.8V9.21C26.86 9.94496 26.3329 10.5625 25.6133 10.683C25.6129 10.6831 25.6126 10.6831 25.6122 10.6832L24.7905 10.8226C24.7167 11.0275 24.6316 11.2288 24.5401 11.4235L25.0262 12.1084C25.0265 12.1088 25.0267 12.1092 25.027 12.1096C25.4523 12.7032 25.3721 13.515 24.8636 14.0236L23.8636 15.0236C23.5782 15.3089 23.2003 15.46 22.81 15.46C22.5104 15.46 22.209 15.3701 21.9517 15.1885L21.9506 15.1878L21.2629 14.6997C21.0673 14.7907 20.8678 14.8734 20.6631 14.9476L20.5232 15.7722C20.5231 15.7725 20.5231 15.7729 20.523 15.7732C20.4021 16.4959 19.7719 17.02 19.05 17.02H17.64C16.905 17.02 16.2873 16.4928 16.1669 15.7731C16.1669 15.7728 16.167 15.7734 16.1669 15.7731L16.0278 14.9525C15.8336 14.8848 15.6435 14.8081 15.4562 14.7211L14.7602 15.2172L14.7583 15.2185C14.5032 15.3986 14.2122 15.49 13.9 15.49C13.497 15.49 13.1299 15.337 12.8464 15.0536L11.8487 14.0558C11.3201 13.5396 11.2632 12.7244 11.6837 12.1385C11.6838 12.1385 11.6837 12.1386 11.6837 12.1385L12.1665 11.4656C12.0718 11.267 11.9883 11.0655 11.9145 10.8643L11.0678 10.7232C10.3446 10.6027 9.82 9.97224 9.82 9.25V7.84C9.82 7.10507 10.347 6.4875 11.0666 6.367C11.067 6.36693 11.0674 6.36687 11.0678 6.3668L11.8777 6.22816C11.9488 6.02547 12.0302 5.82467 12.1205 5.62839L11.6278 4.93724C11.3679 4.59563 11.2966 4.18337 11.3675 3.80369C11.4157 3.50973 11.5558 3.23709 11.7764 3.01645L12.7764 2.01645C13.0618 1.73108 13.4397 1.58 13.83 1.58C14.1296 1.58 14.431 1.6699 14.6883 1.85152L14.6915 1.85372L15.3644 2.33653C15.563 2.24181 15.7645 2.15835 15.9657 2.08451L16.1068 1.2378ZM17.58 0.990002C17.3422 0.990002 17.1327 1.16544 17.0932 1.4022L16.9032 2.5422C16.8725 2.72633 16.7418 2.87803 16.5643 2.93561C16.2169 3.04827 15.8762 3.18699 15.5585 3.35943C15.3901 3.45086 15.1843 3.43798 15.0285 3.32627L14.1104 2.66759C14.0279 2.6098 13.9299 2.58 13.83 2.58C13.7003 2.58 13.5782 2.62892 13.4836 2.72355L12.4836 3.72355C12.4063 3.80083 12.367 3.88512 12.3539 3.96798L12.351 3.98443C12.3251 4.11936 12.3528 4.23996 12.4256 4.33428C12.4296 4.33937 12.4334 4.34455 12.4372 4.34979L13.1072 5.28979C13.2157 5.44212 13.2302 5.64232 13.1446 5.80868C12.9782 6.13232 12.84 6.47353 12.7393 6.81249C12.685 6.99491 12.5319 7.13073 12.3444 7.16283L11.2322 7.3532C10.9924 7.39317 10.82 7.59533 10.82 7.84V9.25C10.82 9.48776 10.9954 9.69734 11.2322 9.7368L12.3722 9.92681C12.5563 9.95749 12.708 10.0882 12.7656 10.2657C12.8783 10.6131 13.017 10.9538 13.1894 11.2715C13.2809 11.4399 13.268 11.6457 13.1563 11.8015L12.4963 12.7215C12.3576 12.9146 12.3797 13.1775 12.5484 13.3414L12.5536 13.3464L13.5536 14.3464C13.6501 14.443 13.763 14.49 13.9 14.49C14.0074 14.49 14.0963 14.4616 14.1808 14.4021C14.1811 14.4019 14.1806 14.4023 14.1808 14.4021L15.1198 13.7328C15.2739 13.623 15.4767 13.6096 15.6439 13.6981C15.9526 13.8615 16.2717 13.9894 16.6125 14.0907C16.7952 14.145 16.9311 14.2985 16.963 14.4864L17.1532 15.6078C17.1932 15.8476 17.3953 16.02 17.64 16.02H19.05C19.2878 16.02 19.4973 15.8446 19.5368 15.6078L19.537 15.6064L19.727 14.4864C19.7584 14.3015 19.8906 14.1497 20.0694 14.0932C20.4213 13.9821 20.7553 13.843 21.0813 13.6754C21.2474 13.59 21.4471 13.6042 21.5994 13.7122L22.5283 14.3715C22.5285 14.3716 22.5282 14.3714 22.5283 14.3715C22.6109 14.4296 22.7098 14.46 22.81 14.46C22.9397 14.46 23.0618 14.4111 23.1564 14.3164L24.1564 13.3164C24.3275 13.1454 24.3476 12.8779 24.2138 12.6916L24.2122 12.6894L23.5522 11.7594C23.4442 11.6071 23.43 11.4074 23.5154 11.2413C23.6857 10.9101 23.832 10.5696 23.9307 10.2375C23.985 10.0548 24.1385 9.91892 24.3264 9.88704L25.4464 9.69704L25.4478 9.69681C25.6876 9.65684 25.86 9.45467 25.86 9.21V7.8C25.86 7.5662 25.703 7.37041 25.4894 7.31957C25.4683 7.3187 25.4472 7.31649 25.4264 7.31296L24.3064 7.12296C24.1215 7.09159 23.9697 6.9594 23.9132 6.78057C23.8021 6.42866 23.663 6.09473 23.4954 5.76868C23.41 5.60265 23.4242 5.40288 23.5322 5.25063L24.1922 4.32063L24.1938 4.3184C24.3325 4.1253 24.3103 3.86248 24.1416 3.69864L24.1364 3.69359L23.1364 2.69355C23.0399 2.59703 22.927 2.55 22.79 2.55C22.6824 2.55 22.5934 2.57854 22.5087 2.63824C22.5086 2.63832 22.5088 2.63815 22.5087 2.63824L21.5794 3.29776C21.4256 3.40691 21.2234 3.42023 21.0566 3.33219C20.7219 3.15555 20.3747 3.01006 20.0243 2.91123C19.8387 2.85888 19.6997 2.70445 19.6672 2.51436L19.4772 1.40436L19.4768 1.4022C19.4368 1.1624 19.2347 0.990002 18.99 0.990002H17.58Z" fill="white"/>
<path fill-rule="evenodd" clip-rule="evenodd" d="M18.33 6.09C16.999 6.09 15.92 7.16899 15.92 8.5C15.92 9.83101 16.999 10.91 18.33 10.91C19.661 10.91 20.74 9.83101 20.74 8.5C20.74 7.16899 19.661 6.09 18.33 6.09ZM14.92 8.5C14.92 6.61671 16.4467 5.09 18.33 5.09C20.2133 5.09 21.74 6.61671 21.74 8.5C21.74 10.3833 20.2133 11.91 18.33 11.91C16.4467 11.91 14.92 10.3833 14.92 8.5Z" fill="white"/>
<path fill-rule="evenodd" clip-rule="evenodd" d="M2.96915 9C2.70618 9.00044 2.48812 9.2037 2.46853 9.45835L2.46832 9.46108L2.46831 9.46108L1.00831 27.1711L1.00818 27.1726C0.933121 28.0508 1.62305 28.8 2.5 28.8H20.56C21.437 28.8 22.1269 28.0508 22.0518 27.1726L22.0517 27.1714L21.0017 14.5414L21.9983 14.4586L23.0482 27.0874C23.0482 27.0876 23.0482 27.0878 23.0482 27.088C23.1728 28.5495 22.0228 29.8 20.56 29.8H2.5C1.03722 29.8 -0.112703 28.5496 0.011748 27.0882C0.0117706 27.088 0.0117933 27.0877 0.0118161 27.0874L1.47147 9.38165C1.47151 9.38115 1.47155 9.38065 1.47159 9.38015C1.53271 8.59581 2.19384 8 2.97 8H2.97204V8L10.332 8.03L10.328 9.03L2.97 9C2.96972 9 2.96943 9 2.96915 9Z" fill="white"/>
<path fill-rule="evenodd" clip-rule="evenodd" d="M7.78771 5.80629C7.09367 6.70182 6.86 7.78756 6.86 8.5V12.4998C6.86 12.7759 6.63614 12.9998 6.36 12.9998C6.08386 12.9998 5.86 12.7759 5.86 12.4998V8.5C5.86 7.61244 6.14133 6.29818 6.99729 5.19372C7.87113 4.06618 9.31228 3.2 11.53 3.2C11.8061 3.2 12.03 3.42386 12.03 3.7C12.03 3.97614 11.8061 4.2 11.53 4.2C9.60772 4.2 8.46387 4.93382 7.78771 5.80629Z" fill="white"/>
</g>
<defs>
<clipPath id="clip0_1_8">
<rect width="26.83" height="29.8" fill="white"/>
</clipPath>
</defs>
</svg>
