<svg width="32" height="32" viewBox="0 0 32 32" fill="none" xmlns="http://www.w3.org/2000/svg">
<path d="M28.7145 23.2488L21.2128 16.4783L20.8556 16.1596L19.8515 16.2079L19.7453 15.5221L22.1107 13.1558C24.2058 13.9382 26.6194 13.4359 28.2124 11.8423C29.8827 10.1618 30.3654 7.58299 29.4 5.41952L29.12 4.77241L26.1463 7.74718H24.8043L24.1478 7.09041V5.7479L27.1215 2.77313L26.4746 2.49304C24.312 1.5272 21.7342 2.01012 20.0639 3.68101C18.4612 5.27464 17.9592 7.68923 18.7412 9.78509L15.5938 12.9337L9.49208 7.14836L9.77206 5.27464L4.93508 2.28055L4.60683 2.05841L2.06765 4.5889L5.273 9.77543L7.15565 9.48568L12.9388 15.5898L9.79137 18.7384C7.70597 17.956 5.28265 18.4679 3.68963 20.0616C2.00972 21.7421 1.52699 24.3209 2.49246 26.4844L2.7821 27.1218L5.74607 24.147H7.09772L7.75424 24.8038V26.156L4.78061 29.1211L5.42747 29.4108C6.17088 29.7392 6.96256 29.9034 7.74459 29.9034C9.25071 29.9034 10.7375 29.3143 11.8382 28.2132C13.4312 26.6196 13.9429 24.205 13.1608 22.1091L15.5262 19.7428L16.2117 19.8491L16.1634 20.8535L23.2403 28.7251C23.9547 29.5171 24.9395 29.971 26.0112 30H26.1174C27.1601 30 28.1255 29.604 28.8593 28.8603C29.622 28.107 30.0275 27.0928 29.9985 26.0208C29.9696 24.9487 29.5158 23.9635 28.7145 23.2488ZM7.50322 8.46189L5.75573 8.72267L3.29379 4.73377L4.73234 3.29468L8.71971 5.75756L8.45903 7.50572L14.9083 13.6194L13.6243 14.904L7.50322 8.46189ZM14.3291 19.569L12.0119 21.887L12.1471 22.1864C12.9484 23.9925 12.5526 26.1367 11.1527 27.5371C9.93619 28.7541 8.14043 29.2177 6.49914 28.7734L8.71971 26.552V24.4078L7.49357 23.1812H5.35023L3.12966 25.4026C2.68555 23.7704 3.14897 21.9643 4.37511 20.7473C5.76538 19.3468 7.90871 18.9509 9.71413 19.7525L10.0134 19.8877L13.605 16.2948L16.2986 13.6001L19.8901 10.0072L19.755 9.70782C18.9536 7.90171 19.3495 5.75756 20.7397 4.36676C21.9659 3.14015 23.7616 2.68621 25.4029 3.13049L23.1824 5.34225V7.4864L24.4085 8.71301H26.5518L28.7628 6.49159C29.2069 8.13351 28.7531 9.92996 27.527 11.1566C26.1367 12.5474 23.9934 12.9434 22.1879 12.1417L21.8886 12.0065L19.5715 14.3245L14.3291 19.569ZM28.1738 28.1842C27.6042 28.7541 26.8511 29.0438 26.0401 29.0342C25.2388 29.0148 24.4954 28.6768 23.9644 28.078L17.1965 20.5735L17.1386 20.5058L17.2158 19.0281L16.3662 18.9026L18.8957 16.3721L19.0212 17.2124L20.508 17.1447L28.0676 23.9635C28.6662 24.5044 29.0041 25.2384 29.0331 26.0497V26.127C29.0331 26.8997 28.7338 27.6337 28.1738 28.1842Z" fill="white"/>
</svg>
