<svg width="56" height="56" viewBox="0 0 56 56" fill="none" xmlns="http://www.w3.org/2000/svg">
<path fill-rule="evenodd" clip-rule="evenodd" d="M9.06931 8.93026C8.43958 9.48432 8.00912 10.1677 7.83568 10.9167H27.7313C27.9239 9.68954 28.5809 8.61181 29.5078 7.79856L29.5125 7.79437L29.5125 7.79439C29.5298 7.7795 29.5472 7.76471 29.5646 7.75H12.4104C11.0924 7.75 9.9227 8.20865 9.06931 8.93026ZM33.8333 6.25H12.4104C10.74 6.25 9.22324 6.83309 8.09437 7.79028L8.0943 7.7902L8.08477 7.79856C6.97332 8.77377 6.25 10.1293 6.25 11.6667C6.25 12.0809 6.58579 12.4167 7 12.4167H28.423C28.8372 12.4167 29.173 12.0809 29.173 11.6667C29.173 10.6253 29.6585 9.66287 30.4946 8.92819C31.3267 8.21159 32.5107 7.75 33.8333 7.75C34.2475 7.75 34.5833 7.41421 34.5833 7C34.5833 6.58579 34.2475 6.25 33.8333 6.25Z" fill="white"/>
<path fill-rule="evenodd" clip-rule="evenodd" d="M24.311 44.3333C24.311 43.9191 24.6468 43.5833 25.061 43.5833H44.333C44.7472 43.5833 45.083 43.9191 45.083 44.3333C45.083 45.8533 44.3915 47.2213 43.2892 48.1878C42.2044 49.1675 40.7098 49.75 39.0888 49.75H19.833C19.4188 49.75 19.083 49.4142 19.083 49C19.083 48.5858 19.4188 48.25 19.833 48.25C21.0997 48.25 22.2333 47.794 23.0315 47.0714L23.0362 47.0672L23.0362 47.0672C23.8346 46.3568 24.311 45.3839 24.311 44.3333ZM23.9633 48.25H39.0888C40.3555 48.25 41.4891 47.794 42.2873 47.0714L42.2967 47.0629L42.2968 47.063C42.9102 46.5264 43.3316 45.8402 43.5005 45.0833H25.7541C25.5682 46.3002 24.9379 47.382 24.0358 48.1856C24.0118 48.2073 23.9877 48.2287 23.9633 48.25Z" fill="white"/>
<path fill-rule="evenodd" clip-rule="evenodd" d="M11.75 7C11.75 6.58579 12.0858 6.25 12.5 6.25H33.8337C35.7344 6.25 37.467 6.86896 38.6104 7.92897L38.6205 7.93831C39.7133 8.98924 40.417 10.4394 40.417 12.0588V17.958C40.417 18.3722 40.0812 18.708 39.667 18.708C39.2528 18.708 38.917 18.3722 38.917 17.958V12.0588C38.917 10.8907 38.4124 9.82171 37.5857 9.02441C36.7707 8.27177 35.4297 7.75 33.8337 7.75H12.5C12.0858 7.75 11.75 7.41421 11.75 7ZM11.667 11.25C12.0812 11.25 12.417 11.5858 12.417 12V43.5714C12.417 44.9094 12.9091 46.0305 14.0087 46.8433C15.1414 47.6807 17.0003 48.25 19.8337 48.25H39.6668C39.6668 48.25 39.667 48.25 39.667 49C39.667 49.75 39.6668 49.75 39.6668 49.75H19.8337C16.8337 49.75 14.6093 49.1526 13.117 48.0495C11.5916 46.9219 10.917 45.3287 10.917 43.5714V12C10.917 11.5858 11.2528 11.25 11.667 11.25ZM39.667 37.292C40.0812 37.292 40.417 37.6278 40.417 38.042L40.417 44C40.417 44.4142 40.0812 44.75 39.667 44.75C39.2528 44.75 38.917 44.4142 38.917 44L38.917 38.042C38.917 37.6278 39.2528 37.292 39.667 37.292ZM40.417 49C40.417 49.4142 40.0811 49.75 39.6668 49.75L39.667 49L39.6668 48.25C40.0811 48.25 40.417 48.5858 40.417 49Z" fill="white"/>
<path fill-rule="evenodd" clip-rule="evenodd" d="M39.0837 19.4167C33.9776 19.4167 29.917 23.3017 29.917 28C29.917 32.6982 33.9776 36.5833 39.0837 36.5833C44.1898 36.5833 48.2503 32.6982 48.2503 28C48.2503 23.3017 44.1898 19.4167 39.0837 19.4167ZM28.417 28C28.417 22.3889 33.2361 17.9167 39.0837 17.9167C44.9312 17.9167 49.7503 22.3889 49.7503 28C49.7503 33.611 44.9312 38.0833 39.0837 38.0833C33.2361 38.0833 28.417 33.611 28.417 28Z" fill="white"/>
<path fill-rule="evenodd" clip-rule="evenodd" d="M15.583 19.8333C15.583 19.4191 15.9188 19.0833 16.333 19.0833H20.9997C21.4139 19.0833 21.7497 19.4191 21.7497 19.8333V23.3333C21.7497 23.7476 21.4139 24.0833 20.9997 24.0833H16.333C15.9188 24.0833 15.583 23.7476 15.583 23.3333V19.8333ZM17.083 20.5833V22.5833H20.2497V20.5833H17.083Z" fill="white"/>
<path fill-rule="evenodd" clip-rule="evenodd" d="M15.583 26.8333C15.583 26.4191 15.9188 26.0833 16.333 26.0833H20.9997C21.4139 26.0833 21.7497 26.4191 21.7497 26.8333V30.3333C21.7497 30.7476 21.4139 31.0833 20.9997 31.0833H16.333C15.9188 31.0833 15.583 30.7476 15.583 30.3333V26.8333ZM17.083 27.5833V29.5833H20.2497V27.5833H17.083Z" fill="white"/>
<path fill-rule="evenodd" clip-rule="evenodd" d="M15.583 33.8333C15.583 33.4191 15.9188 33.0833 16.333 33.0833H20.9997C21.4139 33.0833 21.7497 33.4191 21.7497 33.8333V37.3333C21.7497 37.7476 21.4139 38.0833 20.9997 38.0833H16.333C15.9188 38.0833 15.583 37.7476 15.583 37.3333V33.8333ZM17.083 34.5833V36.5833H20.2497V34.5833H17.083Z" fill="white"/>
<path fill-rule="evenodd" clip-rule="evenodd" d="M43.6769 25.1169C43.9805 25.3987 43.9982 25.8732 43.7164 26.1769L38.3025 32.0102C38.1614 32.1623 37.9635 32.2491 37.756 32.25C37.5484 32.2509 37.3498 32.1657 37.2074 32.0148L34.4546 29.0981C34.1703 28.7969 34.184 28.3222 34.4852 28.0379C34.7864 27.7536 35.2611 27.7673 35.5454 28.0685L37.7482 30.4024L42.6169 25.1565C42.8987 24.8529 43.3733 24.8352 43.6769 25.1169Z" fill="white"/>
</svg>
