<svg width="56" height="56" fill="none" xmlns="http://www.w3.org/2000/svg"><path d="M41.207 6.354c-3.409.322-6.304 1.123-9.245 2.557-2.495 1.216-4.489 2.633-6.762 4.804l-.887.847-2.903-.062-2.904-.062-5.449 6.227c-2.998 3.425-5.504 6.329-5.569 6.453-.181.344.052.832.46.96.171.053 1.53.209 3.019.346 1.488.137 2.717.259 2.73.27.012.012-.082.279-.21.595-.374.919-.367.938.796 2.116l1.029 1.043-2.152 1.432c-2.206 1.468-2.332 1.586-2.207 2.077.03.115 2.062 2.215 4.516 4.666 4.686 4.68 4.639 4.641 5.148 4.369.091-.049.787-1.038 1.547-2.199l1.382-2.111 1.046 1.032c1.181 1.166 1.2 1.173 2.119.799.316-.128.584-.222.596-.21.013.013.155 1.305.316 2.87.201 1.949.338 2.915.434 3.061.205.314.561.424.872.269.271-.135 13.506-11.101 13.698-11.349.084-.109.114-.999.117-3.444l.003-3.296.848-.945c3.42-3.81 5.429-8.076 6.216-13.201.229-1.487.227-5.134-.004-6.511-.194-1.156-.476-2.333-.63-2.63-.155-.298-.469-.403-1.807-.605-1.426-.216-4.716-.305-6.163-.168m5.721 1.615c.529.071.977.145.997.165.104.104.428 2.063.522 3.159.335 3.91-.497 8.161-2.313 11.807-1.543 3.1-3.346 5.308-7.354 9.007-4.311 3.979-8.073 6.765-11.432 8.466l-1.165.59-5.625-5.625c-3.093-3.093-5.625-5.677-5.625-5.743 0-.161.818-1.779 1.41-2.789 2.58-4.398 8.367-11.174 12.077-14.139 1.421-1.136 3.949-2.619 5.553-3.259a26.762 26.762 0 0 1 7.463-1.768c1.174-.107 4.282-.034 5.492.129m-14.215 7.712c-1.366.249-2.528.874-3.562 1.914-.625.63-.837.924-1.184 1.643-.948 1.965-.947 3.895.003 5.864.358.742.555 1.011 1.236 1.692.68.681.951.878 1.692 1.236 2.649 1.28 5.506.811 7.558-1.241.877-.877 1.32-1.61 1.692-2.802.312-1.001.312-2.64 0-3.64-.362-1.159-.82-1.927-1.647-2.763-1.25-1.263-2.649-1.886-4.388-1.953-.513-.019-1.143.003-1.4.05m-10.418.36.595.059-.598.653c-3.035 3.315-5.503 6.555-7.308 9.592l-.542.911-.431-.051c-.237-.029-1.286-.132-2.33-.229-1.045-.097-1.911-.19-1.926-.206-.014-.017 2.098-2.456 4.693-5.42l4.719-5.39 1.267.011c.696.006 1.534.037 1.861.07m12.478 1.139c2.016.366 3.749 2.167 4.07 4.231.332 2.136-.83 4.357-2.763 5.279-1.592.76-2.901.76-4.494 0-1.918-.915-3.077-3.106-2.768-5.229.165-1.131.613-2.006 1.458-2.852 1.249-1.248 2.79-1.738 4.497-1.429m6.444 19.179c-.038.1-11.753 9.864-11.892 9.912-.039.013-.167-.974-.285-2.193-.118-1.22-.233-2.284-.255-2.366-.03-.107.315-.36 1.258-.922 2.939-1.754 6.883-4.842 10.132-7.935l1.032-.982.025 2.192c.014 1.205.007 2.237-.015 2.294M21.3 41.365l-1.176 1.765-3.618-3.618c-1.99-1.989-3.6-3.636-3.576-3.659a96.09 96.09 0 0 1 1.746-1.186l1.704-1.143 3.048 3.039 3.047 3.038-1.175 1.764m-11.734-1.2c-1.026.685-1.925 1.317-1.998 1.405-.073.088-.132.29-.132.45 0 .342.386.727.731.727.266 0 4.096-2.517 4.186-2.751.191-.499-.162-1.076-.659-1.076-.18 0-.843.388-2.128 1.245m.399 4.8c-3.379 3.378-3.712 3.738-3.712 4.017a.78.78 0 0 0 .765.765c.279 0 .639-.333 4.017-3.712 3.379-3.378 3.712-3.738 3.712-4.017a.78.78 0 0 0-.765-.765c-.279 0-.639.333-4.017 3.712m6.01-1.314c-.212.085-2.722 3.94-2.722 4.182 0 .123.099.338.219.477.257.299.708.342.983.094.097-.088.727-.988 1.401-2.001.832-1.252 1.224-1.924 1.224-2.1 0-.496-.603-.852-1.105-.652" fill="#fff" fill-rule="evenodd"/></svg>