<svg width="56" height="56" fill="none" xmlns="http://www.w3.org/2000/svg"><path d="M25.823 6.345c-2.33.295-4.312 1.021-6.205 2.273-3.815 2.522-6.132 6.607-6.334 11.169-.174 3.916 1.186 7.547 3.891 10.396.359.377.652.713.652.746 0 .033-1.286 3.304-2.858 7.269-1.572 3.965-2.86 7.325-2.862 7.466-.006.332.359.723.673.722.132 0 1.341-.351 2.688-.78l2.447-.78.134.204c.073.112.598 1.132 1.166 2.267s1.126 2.151 1.24 2.257c.361.336.899.217 1.14-.253.072-.14 1.42-3.446 2.997-7.348 1.576-3.901 2.894-7.122 2.927-7.158.034-.036 1.531 3.21 3.328 7.213 1.796 4.003 3.367 7.382 3.489 7.508.263.272.652.3.936.067.11-.089.741-1.191 1.402-2.447.661-1.256 1.248-2.299 1.305-2.318.057-.019 1.213.326 2.568.767 1.354.441 2.548.802 2.653.802.307 0 .698-.399.695-.709-.001-.153-1.452-3.454-3.339-7.594-2.142-4.702-3.308-7.364-3.256-7.435.044-.062.413-.505.82-.984.913-1.074 1.535-2.015 2.058-3.112 2.692-5.642 1.432-12.255-3.145-16.518-1.891-1.761-4.269-2.97-6.886-3.503-1.104-.225-3.281-.319-4.324-.187m4.121 1.678c2.389.487 4.493 1.602 6.263 3.32 1.984 1.926 3.256 4.344 3.698 7.03.194 1.178.143 3.584-.099 4.68-1.042 4.733-4.609 8.441-9.257 9.621-7.019 1.781-14.019-2.606-15.536-9.739-.268-1.262-.291-3.626-.047-4.86a12.866 12.866 0 0 1 6.869-9.019c1.22-.613 2.883-1.092 4.345-1.251.808-.088 2.841.03 3.764.218m-2.992 4.239c-.089.067-.65 1.169-1.246 2.447-.597 1.278-1.112 2.352-1.146 2.385-.033.034-1.068.213-2.3.398-2.84.426-2.919.447-3.086.849-.073.173-.104.391-.069.484.035.092.864.999 1.843 2.015.978 1.015 1.792 1.908 1.809 1.983.016.075-.145 1.197-.36 2.493-.48 2.91-.481 2.925-.151 3.209.142.122.35.222.463.222.113 0 1.198-.546 2.412-1.214 1.214-.667 2.252-1.213 2.307-1.213.055 0 1.081.546 2.281 1.213 1.291.718 2.285 1.214 2.434 1.214.302 0 .71-.377.71-.655 0-.109-.189-1.359-.421-2.779l-.422-2.581 1.572-1.589c2.345-2.371 2.408-2.468 1.955-2.986-.197-.225-.372-.265-2.73-.623-1.386-.21-2.527-.388-2.535-.395-.008-.007-.503-1.062-1.101-2.346-.597-1.283-1.173-2.406-1.279-2.496-.226-.192-.71-.21-.94-.035m1.382 4.291c.47 1.005.906 1.813 1.015 1.882.142.09 3.645.698 4.023.698.031 0-.58.662-1.359 1.47-.779.809-1.452 1.56-1.495 1.671-.052.13.032.88.239 2.146.175 1.071.319 1.996.321 2.055.001.06-.785-.33-1.748-.866-1.346-.75-1.807-.965-1.998-.93-.137.026-.998.465-1.914.976-.915.511-1.67.922-1.677.914a68.35 68.35 0 0 1 .302-1.929c.172-1.052.314-2.036.315-2.187.002-.229-.235-.512-1.462-1.748-.806-.811-1.443-1.496-1.417-1.522.026-.026.884-.176 1.907-.334 1.268-.195 1.935-.339 2.094-.453.153-.109.523-.785 1.071-1.952.461-.982.866-1.755.899-1.718.033.037.43.859.884 1.827m10.525 21.45c1.572 3.449 2.84 6.289 2.817 6.312-.023.024-.901-.236-1.95-.576-1.951-.633-2.333-.707-2.607-.502-.086.064-.601.956-1.143 1.983-.543 1.027-1.017 1.897-1.053 1.934-.047.047-5.413-11.667-5.787-12.634-.018-.044.077-.08.211-.08.36 0 1.77-.33 2.62-.613.999-.333 2.465-1.059 3.266-1.617.36-.251.679-.46.711-.466.032-.006 1.344 2.811 2.915 6.259m-19.064-5.651c.785.507 2.307 1.235 3.165 1.513.782.254 2.175.575 2.5.576.139.001.306.036.371.077.088.056-.523 1.659-2.41 6.321-1.39 3.435-2.544 6.261-2.562 6.28-.019.019-.437-.769-.928-1.75-.491-.981-.976-1.868-1.079-1.97a.737.737 0 0 0-.489-.185c-.166 0-1.162.271-2.213.602-1.05.331-1.927.585-1.949.563-.038-.038 4.847-12.459 4.9-12.459.015 0 .327.194.694.432" fill="#fff" fill-rule="evenodd"/></svg>