<svg width="56" height="56" fill="none" xmlns="http://www.w3.org/2000/svg"><path d="M13.658 6.951c-2.045 1.666-3.77 3.126-3.833 3.243-.09.165-.116 2.574-.117 10.787-.001 11.492-.026 10.957.509 11.201.183.083 1.932.111 6.866.111h6.621l.025 9.668.024 9.669.262.225.262.225h21.446l.262-.225.262-.225.026-13.519c.014-7.435.002-13.613-.026-13.73a1.034 1.034 0 0 0-.236-.397c-.18-.18-.338-.184-6.95-.184h-6.765l-.025-9.715-.024-9.715-.262-.225-.262-.225H17.377l-3.719 3.031M30.7 15.143l-.008 9.73-3.266 2.964-3.267 2.963H11.293V11.3l3.322-.027 3.321-.026.226-.262.225-.262v-5.31h12.32l-.007 9.73M16.893 8.027V9.8h-2.107c-1.177 0-2.094-.036-2.077-.082.025-.067 4.08-3.437 4.161-3.458.013-.004.023.791.023 1.767m20.068 3.029c-1.412 1.319-1.638 1.606-1.535 1.945.08.259 2.421 2.645 2.78 2.834.346.181.757.027.957-.359.191-.371.104-.579-.512-1.229l-.524-.552.466.066c1.461.206 3.025.818 3.877 1.517 1.371 1.127 2.075 2.689 2.226 4.945.069 1.025.088 1.099.327 1.305.325.28.632.277.962-.007.255-.221.261-.248.24-1.093-.087-3.537-1.751-6.173-4.676-7.407-.817-.345-2.08-.676-2.907-.762-.309-.033-.562-.086-.562-.118 0-.033.294-.351.653-.708.53-.525.654-.703.654-.938 0-.389-.333-.695-.757-.695-.288 0-.477.142-1.669 1.256m7.746 26.884v12.647H25.293V32.293h3.123c2.222 0 3.192-.032 3.367-.111.492-.224.51-.36.51-3.757v-3.132h12.414V37.94m-14-9.1v1.96h-2.108c-1.159 0-2.094-.034-2.077-.077.028-.069 4.105-3.831 4.161-3.839.013-.002.024.878.024 1.956m-20.692 5.639c-.255.221-.261.248-.24 1.093.091 3.715 1.973 6.487 5.16 7.602.813.284 2.154.594 2.583.597.164.001.319.037.345.079.026.043-.244.367-.601.721-.525.521-.649.699-.649.934 0 .463.544.862.958.702.28-.108 2.78-2.457 2.94-2.761.069-.132.098-.327.065-.432-.105-.331-2.442-3.784-2.668-3.943-.301-.21-.587-.189-.885.068-.433.372-.356.651.559 2.026l.814 1.221-.448-.059c-2.817-.373-4.522-1.263-5.599-2.922-.635-.979-.937-2.032-1.046-3.65-.068-1.001-.087-1.078-.326-1.283-.325-.28-.632-.277-.962.007m20.178 1.113c-.565.377-1.086.758-1.159.845-.22.266-.164.712.122.958.336.288.584.275 1.109-.057l.434-.276.027 2.991.027 2.99.262.225c.333.286.638.286.97 0l.262-.225V35.388l-.227-.24c-.375-.4-.671-.328-1.827.444m7.28-.555c-.897.282-1.65.994-2.147 2.03-1.313 2.74.203 6.162 2.836 6.4.995.091 2.16-.432 2.736-1.226.316-.436.306-.827-.029-1.104-.335-.279-.682-.206-1.198.252-.755.671-1.466.77-2.164.303-.389-.261-.883-.982-1.025-1.497-.154-.558-.129-1.646.05-2.185.29-.873 1.144-1.61 1.865-1.61.469 0 .723.121 1.263.601.302.268.567.426.717.426.282 0 .783-.465.783-.726 0-.487-.973-1.378-1.795-1.644-.548-.177-1.366-.186-1.892-.02" fill="#fff" fill-rule="evenodd"/></svg>