<svg width="56" height="56" viewBox="0 0 56 56" fill="none" xmlns="http://www.w3.org/2000/svg">
<path fill-rule="evenodd" clip-rule="evenodd" d="M16.9041 7C16.9041 6.71992 16.7481 6.46317 16.4994 6.33422C16.2508 6.20527 15.951 6.2256 15.7221 6.38695L4.23495 14.4824C4.03568 14.6229 3.9171 14.8514 3.91699 15.0952C3.91689 15.339 4.03527 15.5676 4.23441 15.7082L12.3677 21.4517C12.1147 22.1331 11.9011 22.8318 11.7269 23.5474H8.46405C8.09926 23.5474 7.78738 23.8099 7.72507 24.1693C7.51375 25.3882 7.41699 26.6203 7.41699 27.8971C7.41699 29.1734 7.51366 30.422 7.72507 31.6415C7.78738 32.0009 8.09926 32.2633 8.46405 32.2633H11.7256C12.1352 33.9603 12.7694 35.565 13.6119 37.0396L11.2652 39.5181C11.0252 39.7716 10.9918 40.1571 11.1847 40.4481C12.5456 42.5014 14.2303 44.2805 16.1726 45.7506C16.3029 45.8492 16.4618 45.9026 16.6252 45.9026H16.6409C16.8476 45.9026 17.0452 45.8173 17.1869 45.6667L19.4892 43.2213C20.8603 44.0929 22.3693 44.7616 23.9582 45.1924V48.6863C23.9582 49.0456 24.2131 49.3544 24.5658 49.4226C25.7279 49.6474 26.9173 49.75 28.1322 49.75C29.347 49.75 30.5364 49.6474 31.6985 49.4226C32.0513 49.3544 32.3061 49.0456 32.3061 48.6863V45.3082H39.0924V48.934C39.0924 49.214 39.2484 49.4707 39.4969 49.5997C39.7455 49.7286 40.0452 49.7084 40.2741 49.5472L51.7654 41.4561C51.965 41.3156 52.0837 41.0869 52.0837 40.8429C52.0837 40.5989 51.965 40.3701 51.7654 40.2296L43.6113 34.4882C43.8708 33.8373 44.0991 33.1742 44.2762 32.466H47.5367C47.9015 32.466 48.2134 32.2035 48.2757 31.844C48.4871 30.6238 48.5837 29.358 48.5837 28.0979C48.5837 26.8372 48.487 25.588 48.2757 24.3682C48.2134 24.0087 47.9015 23.7462 47.5367 23.7462H44.2777C43.8682 22.0355 43.2339 20.4271 42.3908 18.9502L44.737 16.47C44.9778 16.2155 45.0102 15.8282 44.8152 15.5371C43.4407 13.4858 41.7406 11.6875 39.7934 10.2466C39.4884 10.021 39.0631 10.0585 38.8024 10.3341L36.4996 12.7684C35.1201 11.8975 33.6198 11.2388 32.0328 10.8098V7.31391C32.0328 6.95465 31.778 6.64585 31.4253 6.57758C30.2636 6.35272 29.0746 6.25 27.8601 6.25C26.6456 6.25 25.4566 6.35272 24.2949 6.57758C23.9422 6.64585 23.6874 6.95465 23.6874 7.31391V10.6777H16.9041V7ZM42.3476 33.5985C42.5968 32.9371 42.7994 32.2771 42.9409 31.5691C43.011 31.2184 43.3189 30.966 43.6764 30.966H46.8942C47.0229 30.0312 47.0837 29.0665 47.0837 28.0979C47.0837 27.1302 47.023 26.1769 46.8944 25.2462H43.6764C43.3205 25.2462 43.0136 24.9961 42.9418 24.6475C42.5369 22.6817 41.8183 20.8639 40.8184 19.2389C40.6404 18.9497 40.679 18.5771 40.9123 18.3305L43.2295 15.8808C42.1426 14.3558 40.8611 12.9973 39.4273 11.8563L37.157 14.2561C36.9032 14.5245 36.4917 14.5681 36.1872 14.3587C34.6551 13.3052 32.9445 12.5502 31.1133 12.1253C30.7734 12.0464 30.5328 11.7436 30.5328 11.3947V7.94517C29.6655 7.81265 28.775 7.75 27.8601 7.75C26.9452 7.75 26.0546 7.81265 25.1874 7.94517V11.3947C25.1874 11.6386 25.0688 11.8673 24.8694 12.0078C24.7061 12.1229 24.5397 12.1538 24.4777 12.1639C24.4359 12.1707 24.3998 12.174 24.3733 12.1757C24.3596 12.1766 24.3476 12.1771 24.3375 12.1774L24.3236 12.1777L24.3176 12.1777L24.3149 12.1777L24.3136 12.1777C24.3135 12.1777 24.3124 12.1777 24.3124 11.4277V12.1777H16.1541C15.7399 12.1777 15.4041 11.842 15.4041 11.4277V8.4461L5.96813 15.0961L15.4041 21.7593V18.8624C15.4041 18.4482 15.7399 18.1124 16.1541 18.1124H27.8601C29.1098 18.1124 30.3068 18.3771 31.3857 18.8349C31.4568 18.8588 31.5111 18.885 31.5394 18.8987L31.5604 18.9091C31.5696 18.9128 31.5787 18.9166 31.5878 18.9207C33.8556 19.93 35.6452 21.8495 36.604 24.2144C36.6092 24.2273 36.614 24.2403 36.6185 24.2535C36.6219 24.2615 36.6332 24.2893 36.643 24.3162C36.6565 24.3533 36.6738 24.4059 36.6868 24.4707C37.1225 25.5929 37.3466 26.768 37.3466 28.0979C37.3466 29.4688 37.0771 30.7834 36.6078 31.9883C36.4574 32.3742 36.0227 32.5652 35.6367 32.4149C35.2507 32.2646 35.0597 31.8298 35.2101 31.4438C35.616 30.4017 35.8466 29.2712 35.8466 28.0979C35.8466 26.918 35.6448 25.9056 35.2592 24.9394C35.2395 24.8899 35.2251 24.8386 35.2163 24.7864L35.2137 24.7796L35.2062 24.7592C34.3841 22.7445 32.871 21.1395 30.9955 20.2989C30.966 20.2872 30.9419 20.2761 30.9258 20.2684C30.9141 20.2629 30.9036 20.2577 30.8968 20.2544L30.8931 20.2525C30.8719 20.2456 30.8511 20.2377 30.8305 20.2289C29.9185 19.8372 28.9093 19.6124 27.8601 19.6124H16.9041V23.2075C16.9041 23.4878 16.7479 23.7446 16.499 23.8735C16.2502 24.0024 15.9502 23.9818 15.7213 23.82L13.6393 22.3497C13.4045 23.0308 13.2113 23.7314 13.0597 24.4518C12.9866 24.7989 12.6804 25.0474 12.3258 25.0474H9.10605C8.97757 25.9736 8.91699 26.9173 8.91699 27.8971C8.91699 28.8779 8.97768 29.833 9.10625 30.7633H12.3258C12.6811 30.7633 12.9877 31.0128 13.0601 31.3607C13.465 33.3093 14.184 35.1264 15.1844 36.7508C15.3626 37.0401 15.3241 37.413 15.0905 37.6597L12.7706 40.1099C13.846 41.6325 15.1189 42.984 16.5573 44.1473L18.8308 41.7323C19.0853 41.462 19.4993 41.4185 19.8044 41.6302C21.3215 42.6827 23.0475 43.4528 24.8776 43.8771C25.2175 43.9559 25.4582 44.2587 25.4582 44.6077V48.0549C26.3259 48.1874 27.2169 48.25 28.1322 48.25C29.0475 48.25 29.9384 48.1874 30.8061 48.0549V44.6077C30.8061 44.2672 31.0355 43.9695 31.3646 43.8825L31.5523 43.833C31.6147 43.8165 31.6791 43.8082 31.7437 43.8082H39.8424C40.2566 43.8082 40.5924 44.144 40.5924 44.5582V47.4886L50.0309 40.8429L40.5924 34.1971V37.1276C40.5924 37.5418 40.2566 37.8776 39.8424 37.8776H28.1322C26.8804 37.8776 25.6814 37.6122 24.6009 37.1535C24.5527 37.1365 24.5134 37.1183 24.4848 37.104L24.4656 37.0942C24.443 37.0865 24.4208 37.0777 24.3989 37.0678C22.1435 36.0469 20.3542 34.1555 19.4071 31.794C19.3668 31.7055 19.3423 31.6328 19.3261 31.582C18.8755 30.428 18.6425 29.2357 18.6425 27.8806C18.6425 26.5109 18.9119 25.1955 19.383 24.0049C19.5354 23.6198 19.9712 23.4311 20.3564 23.5835C20.7415 23.7359 20.9302 24.1717 20.7778 24.5568C20.3734 25.5789 20.1425 26.7074 20.1425 27.8806C20.1425 29.059 20.3441 30.0721 20.7315 31.0572C20.7378 31.0733 20.7436 31.0895 20.7488 31.106C20.753 31.1193 20.7559 31.1284 20.7581 31.1354C20.7604 31.1421 20.762 31.1469 20.7637 31.1514C20.7662 31.1585 20.7691 31.1657 20.7739 31.1759C20.7807 31.1901 20.7869 31.2045 20.7927 31.2191C21.5895 33.2177 23.0857 34.8058 24.9525 35.6715C24.9821 35.6806 25.0074 35.6901 25.0279 35.6985C25.0772 35.7186 25.1189 35.7412 25.1398 35.7529C25.1467 35.7556 25.1535 35.7584 25.1603 35.7613C26.0727 36.1528 27.0824 36.3776 28.1322 36.3776H39.0924V32.7518C39.0924 32.4717 39.2484 32.215 39.4969 32.0861C39.7455 31.9571 40.0452 31.9773 40.2741 32.1385L42.3476 33.5985Z" fill="white"/>
</svg>
