<svg width="56" height="56" viewBox="0 0 56 56" fill="none" xmlns="http://www.w3.org/2000/svg">
<path fill-rule="evenodd" clip-rule="evenodd" d="M5.5 6.25C5.08579 6.25 4.75 6.58579 4.75 7C4.75 7.41421 5.08579 7.75 5.5 7.75C5.80634 7.75 5.98682 7.82399 6.10701 7.9125C6.234 8.00602 6.35892 8.16431 6.46823 8.4361C6.70024 9.013 6.78118 9.88286 6.81279 11.0208C6.82141 11.3312 6.82638 11.6599 6.83152 12.0003C6.84433 12.8477 6.85823 13.7675 6.93228 14.656C7.03689 15.9114 7.26638 17.2098 7.82918 18.3354C8.16843 19.0139 8.6143 19.5917 9.12491 20.0827L8.58452 28.5919C8.57058 28.8113 8.65362 29.0258 8.81167 29.1786L29.8683 49.5392C30.159 49.8202 30.6201 49.8203 30.9108 49.5393L44.8542 36.0665C45.0004 35.9252 45.083 35.7306 45.083 35.5272C45.083 35.3238 45.0004 35.1291 44.8542 34.9878L23.7826 14.6273C23.6315 14.4813 23.426 14.4054 23.2162 14.418L10.0931 15.2105C9.71535 15.2334 9.41378 15.534 9.3898 15.9116L9.26692 17.8465C9.23366 17.7868 9.20161 17.7262 9.17082 17.6646C8.73362 16.7902 8.52561 15.7136 8.4271 14.5315C8.35751 13.6964 8.34495 12.8608 8.33252 12.034V12.034C8.32721 11.6805 8.32192 11.3287 8.31221 10.9792C8.28132 9.86714 8.20601 8.737 7.8599 7.8764C7.68014 7.42944 7.41054 7.00961 6.99651 6.70469C6.57568 6.39476 6.06866 6.25 5.5 6.25ZM10.5592 21.1653L10.1035 28.3412L30.3899 47.9569L43.2537 35.5272L22.9774 15.9352L10.8448 16.6679L10.6692 19.4334C11.2498 19.8777 11.9183 20.2287 12.6207 20.5006C12.934 20.6219 13.2499 20.7257 13.5618 20.8139C14.0629 19.7891 15.1157 19.0833 16.3333 19.0833C18.0362 19.0833 19.4167 20.4638 19.4167 22.1667C19.4167 23.8696 18.0362 25.25 16.3333 25.25C14.67 25.25 13.3143 23.9329 13.2522 22.2848C12.8645 22.1784 12.4706 22.0509 12.0793 21.8994C11.5688 21.7018 11.0539 21.4598 10.5592 21.1653ZM14.8142 22.6143C15.0073 23.2708 15.6144 23.75 16.3333 23.75C17.2078 23.75 17.9167 23.0411 17.9167 22.1667C17.9167 21.2922 17.2078 20.5833 16.3333 20.5833C15.8488 20.5833 15.4151 20.801 15.1247 21.1438C15.6517 21.2188 16.1246 21.25 16.5 21.25C16.9142 21.25 17.25 21.5858 17.25 22C17.25 22.4142 16.9142 22.75 16.5 22.75C16.0346 22.75 15.455 22.7105 14.8142 22.6143ZM28.6285 14.6447C28.9167 14.3472 29.3916 14.3398 29.689 14.6281L50.689 34.9829C50.8347 35.1241 50.917 35.3184 50.917 35.5213C50.917 35.7242 50.8348 35.9185 50.6892 36.0598L36.7932 49.5383C36.4959 49.8267 36.0211 49.8195 35.7327 49.5222C35.4443 49.2248 35.4515 48.75 35.7488 48.4616L49.0896 35.5216L28.645 15.7052C28.3476 15.4169 28.3402 14.9421 28.6285 14.6447ZM27.3859 25.1599C27.6658 25.4652 27.6451 25.9396 27.3398 26.2195L20.3398 32.6362C20.0345 32.9161 19.56 32.8955 19.2801 32.5901C19.0003 32.2848 19.0209 31.8104 19.3262 31.5305L26.3262 25.1138C26.6316 24.8339 27.106 24.8545 27.3859 25.1599ZM30.8398 29.1362C31.1451 28.8563 31.1658 28.3819 30.8859 28.0766C30.606 27.7712 30.1316 27.7506 29.8262 28.0305L22.8262 34.4471C22.5209 34.727 22.5003 35.2015 22.7801 35.5068C23.06 35.8121 23.5345 35.8328 23.8398 35.5529L30.8398 29.1362ZM34.3859 31.5765C34.6658 31.8819 34.6451 32.3563 34.3398 32.6362L27.3398 39.0529C27.0345 39.3328 26.56 39.3121 26.2801 39.0068C26.0003 38.7015 26.0209 38.227 26.3262 37.9471L33.3262 31.5305C33.6316 31.2506 34.106 31.2712 34.3859 31.5765Z" fill="white"/>
</svg>
