<svg width="56" height="56" viewBox="0 0 56 56" fill="none" xmlns="http://www.w3.org/2000/svg">
<path fill-rule="evenodd" clip-rule="evenodd" d="M11.25 12.5907V27.031C11.25 30.7194 11.9267 34.4864 14.3536 38.0891C16.752 41.6496 20.9105 45.1243 28 48.1841C35.0895 45.1243 39.248 41.6496 41.6464 38.0891C44.0733 34.4864 44.75 30.7194 44.75 27.031V12.5907C44.5642 12.4571 44.2869 12.2658 43.9212 12.0356C43.1727 11.5642 42.0554 10.9307 40.5977 10.2955C37.6828 9.02537 33.4097 7.75 28 7.75C22.5903 7.75 18.3172 9.02537 15.4023 10.2955C13.9446 10.9307 12.8273 11.5642 12.0788 12.0356C11.7131 12.2658 11.4358 12.4571 11.25 12.5907ZM45.5 12.2159L45.972 11.633C46.1479 11.7754 46.25 11.9896 46.25 12.2159V27.031C46.25 30.9127 45.5346 35.0019 42.8905 38.9271C40.2509 42.8456 35.7408 46.524 28.2934 49.6902C28.1059 49.7699 27.8941 49.7699 27.7066 49.6902C20.2592 46.524 15.7491 42.8456 13.1095 38.9271C10.4654 35.0019 9.75 30.9127 9.75 27.031V12.2159C9.75 11.9896 9.85215 11.7754 10.028 11.633L10.5 12.2159C10.028 11.633 10.0277 11.6332 10.028 11.633L10.0292 11.632L10.0311 11.6305L10.0366 11.6261L10.0546 11.6118C10.0698 11.5999 10.0913 11.5831 10.119 11.5619C10.1744 11.5194 10.2547 11.4591 10.3596 11.3835C10.5693 11.2322 10.8771 11.0196 11.2795 10.7662C12.0842 10.2595 13.2683 9.58916 14.8031 8.92036C17.8734 7.58255 22.3503 6.25 28 6.25C33.6497 6.25 38.1266 7.58255 41.1969 8.92036C42.7317 9.58916 43.9158 10.2595 44.7205 10.7662C45.1229 11.0196 45.4307 11.2322 45.6404 11.3835C45.7453 11.4591 45.8256 11.5194 45.881 11.5619C45.9087 11.5831 45.9302 11.5999 45.9454 11.6118L45.9634 11.6261L45.9689 11.6305L45.972 11.633C45.9723 11.6332 45.972 11.633 45.5 12.2159Z" fill="white"/>
<path fill-rule="evenodd" clip-rule="evenodd" d="M19.083 23.1109C19.083 22.6967 19.4188 22.3609 19.833 22.3609H36.8646C37.2788 22.3609 37.6146 22.6967 37.6146 23.1109V36.1667C37.6146 36.5809 37.2788 36.9167 36.8646 36.9167H19.833C19.4188 36.9167 19.083 36.5809 19.083 36.1667V23.1109ZM20.583 23.8609V35.4167H36.1146V23.8609H20.583Z" fill="white"/>
<path fill-rule="evenodd" clip-rule="evenodd" d="M28.3428 15.9167C25.4379 15.9167 23.0908 18.2524 23.0908 21.1152V22.3737H33.5948V21.1152C33.5948 18.2524 31.2477 15.9167 28.3428 15.9167ZM21.5908 21.1152C21.5908 17.4114 24.6222 14.4167 28.3428 14.4167C32.0635 14.4167 35.0948 17.4114 35.0948 21.1152V23.1237C35.0948 23.5379 34.759 23.8737 34.3448 23.8737H22.3408C21.9266 23.8737 21.5908 23.5379 21.5908 23.1237V21.1152Z" fill="white"/>
<path fill-rule="evenodd" clip-rule="evenodd" d="M24.5264 20.7031C24.5264 18.6088 26.2456 16.9145 28.3423 16.9145C30.4391 16.9145 32.1583 18.6088 32.1583 20.7031V23.1108C32.1583 23.5251 31.8225 23.8608 31.4083 23.8608C30.9941 23.8608 30.6583 23.5251 30.6583 23.1108V20.7031C30.6583 19.4498 29.6233 18.4145 28.3423 18.4145C27.0613 18.4145 26.0264 19.4498 26.0264 20.7031C26.0264 21.1173 25.6906 21.4531 25.2764 21.4531C24.8622 21.4531 24.5264 21.1173 24.5264 20.7031Z" fill="white"/>
<path fill-rule="evenodd" clip-rule="evenodd" d="M28.3427 26.6548C27.5424 26.6548 26.9102 27.291 26.9102 28.0679C26.9102 28.6039 27.214 29.0688 27.6544 29.2911C27.9071 29.4187 28.0664 29.6776 28.0664 29.9606V32.5744C28.0664 32.7013 28.1727 32.8287 28.3427 32.8287C28.5127 32.8287 28.619 32.7013 28.619 32.5744V29.9606C28.619 29.6776 28.7783 29.4187 29.031 29.2911C29.4714 29.0688 29.7752 28.6039 29.7752 28.0679C29.7752 27.291 29.143 26.6548 28.3427 26.6548ZM25.4102 28.0679C25.4102 26.45 26.7266 25.1548 28.3427 25.1548C29.9588 25.1548 31.2752 26.45 31.2752 28.0679C31.2752 29.0078 30.8241 29.8514 30.119 30.3755V32.5744C30.119 33.5547 29.3159 34.3287 28.3427 34.3287C27.3695 34.3287 26.5664 33.5547 26.5664 32.5744V30.3755C25.8613 29.8514 25.4102 29.0078 25.4102 28.0679Z" fill="white"/>
</svg>
