<svg width="56" height="56" viewBox="0 0 56 56" fill="none" xmlns="http://www.w3.org/2000/svg">
<path fill-rule="evenodd" clip-rule="evenodd" d="M18.3042 27.25C18.6037 23.5817 20.1278 20.2599 22.467 17.6943L23.9697 19.197C24.2626 19.4899 24.7374 19.4899 25.0303 19.197C25.3232 18.9041 25.3232 18.4292 25.0303 18.1363L23.5277 16.6337C26.3627 14.0488 30.121 12.4592 34.25 12.4175V14C34.25 14.4142 34.5858 14.75 35 14.75C35.4142 14.75 35.75 14.4142 35.75 14V12.4709C39.4182 12.7703 42.7399 14.2944 45.3055 16.6335L43.8027 18.1363C43.5098 18.4292 43.5098 18.9041 43.8027 19.197C44.0956 19.4899 44.5704 19.4899 44.8633 19.197L46.3662 17.6942C48.7055 20.2598 50.2297 23.5816 50.5291 27.25H49C48.5858 27.25 48.25 27.5858 48.25 28C48.25 28.4142 48.5858 28.75 49 28.75H50.5825C50.4931 37.6018 43.2896 44.75 34.4167 44.75C25.5437 44.75 18.3403 37.6018 18.2508 28.75H19.8333C20.2475 28.75 20.5833 28.4142 20.5833 28C20.5833 27.5858 20.2475 27.25 19.8333 27.25H18.3042ZM35.1496 10.9316C44.3237 11.306 51.694 18.6763 52.0684 27.8504C52.0782 27.8987 52.0833 27.9488 52.0833 28C52.0833 28.0336 52.0811 28.0667 52.0768 28.0992C52.0812 28.26 52.0833 28.4214 52.0833 28.5833C52.0833 38.3404 44.1737 46.25 34.4167 46.25C24.6596 46.25 16.75 38.3404 16.75 28.5833C16.75 28.4214 16.7522 28.2601 16.7565 28.0992C16.7522 28.0668 16.75 28.0336 16.75 28C16.75 27.9488 16.7551 27.8987 16.7649 27.8504C17.1492 18.4332 24.9052 10.9167 34.4167 10.9167C34.5786 10.9167 34.7399 10.9188 34.9008 10.9232C34.9332 10.9189 34.9664 10.9167 35 10.9167C35.0512 10.9167 35.1013 10.9218 35.1496 10.9316ZM24.083 28.5833C24.083 22.8683 28.7013 18.25 34.4163 18.25C36.0102 18.25 37.5036 18.6107 38.8499 19.2465C39.2245 19.4233 39.6715 19.2631 39.8483 18.8885C40.0252 18.514 39.865 18.067 39.4904 17.8901C37.9523 17.1638 36.2409 16.75 34.4163 16.75C27.8729 16.75 22.583 22.0399 22.583 28.5833C22.583 35.1268 27.8729 40.4167 34.4163 40.4167C40.9604 40.4167 46.2497 35.1128 46.2497 28.5833C46.2497 26.7637 45.8514 25.0365 45.1072 23.4908C44.9275 23.1176 44.4792 22.9607 44.106 23.1404C43.7328 23.3201 43.576 23.7683 43.7556 24.1415C44.4002 25.4802 44.7497 26.9845 44.7497 28.5833C44.7497 34.2856 40.1308 38.9167 34.4163 38.9167C28.7013 38.9167 24.083 34.2983 24.083 28.5833ZM34.4167 30C35.1991 30 35.8333 29.3657 35.8333 28.5833C35.8333 28.4735 35.8208 28.3665 35.7972 28.2638L34.9473 29.1137C34.6544 29.4066 34.1796 29.4066 33.8867 29.1137C33.5938 28.8208 33.5938 28.3459 33.8867 28.053L34.7367 27.203C34.6339 27.1792 34.5267 27.1667 34.4167 27.1667C33.6343 27.1667 33 27.8009 33 28.5833C33 29.3657 33.6343 30 34.4167 30ZM36.9405 27.1205C37.1903 27.5505 37.3333 28.0502 37.3333 28.5833C37.3333 30.1942 36.0275 31.5 34.4167 31.5C32.8058 31.5 31.5 30.1942 31.5 28.5833C31.5 26.9725 32.8058 25.6667 34.4167 25.6667C34.95 25.6667 35.4498 25.8098 35.8799 26.0597L41.47 20.4697C41.7629 20.1768 42.2378 20.1768 42.5307 20.4697C42.8235 20.7626 42.8235 21.2374 42.5307 21.5303L36.9405 27.1205ZM4.66699 27.25C4.25278 27.25 3.91699 27.5858 3.91699 28C3.91699 28.4142 4.25278 28.75 4.66699 28.75H14.0003C14.4145 28.75 14.7503 28.4142 14.7503 28C14.7503 27.5858 14.4145 27.25 14.0003 27.25H4.66699ZM9.75 16.3333C9.75 15.9191 10.0858 15.5833 10.5 15.5833H17.5C17.9142 15.5833 18.25 15.9191 18.25 16.3333C18.25 16.7476 17.9142 17.0833 17.5 17.0833H10.5C10.0858 17.0833 9.75 16.7476 9.75 16.3333ZM10.5 40.0833C10.0858 40.0833 9.75 40.4191 9.75 40.8333C9.75 41.2476 10.0858 41.5833 10.5 41.5833H17.5C17.9142 41.5833 18.25 41.2476 18.25 40.8333C18.25 40.4191 17.9142 40.0833 17.5 40.0833H10.5Z" fill="#FCFCFE"/>
</svg>
