<svg width="56" height="56" viewBox="0 0 56 56" fill="none" xmlns="http://www.w3.org/2000/svg">
<path fill-rule="evenodd" clip-rule="evenodd" d="M7.33468 11.25C6.93109 11.25 6.58301 11.586 6.58301 12.0265V16.75H42.4163V12.0265C42.4163 11.586 42.0683 11.25 41.6647 11.25H7.33468ZM42.4163 18.25H6.58301V36.9735C6.58301 37.414 6.93109 37.75 7.33468 37.75H41.6647C42.0683 37.75 42.4163 37.414 42.4163 36.9735V18.25ZM5.08301 17.5V36.9735C5.08301 38.2191 6.07957 39.25 7.33468 39.25H41.6647C42.9198 39.25 43.9163 38.2191 43.9163 36.9735V17.5V12.0265C43.9163 10.7809 42.9198 9.75 41.6647 9.75H7.33468C6.07957 9.75 5.08301 10.7809 5.08301 12.0265V17.5ZM50.1666 18.2765C50.5808 18.2765 50.9166 18.6123 50.9166 19.0265V43.9735C50.9166 45.2241 49.925 46.25 48.6649 46.25H14.335C13.9207 46.25 13.585 45.9142 13.585 45.5C13.585 45.0858 13.9207 44.75 14.335 44.75H48.6649C49.0734 44.75 49.4166 44.419 49.4166 43.9735V19.0265C49.4166 18.6123 49.7524 18.2765 50.1666 18.2765ZM20.25 14C20.25 13.5858 20.5858 13.25 21 13.25H39.6667C40.0809 13.25 40.4167 13.5858 40.4167 14C40.4167 14.4142 40.0809 14.75 39.6667 14.75H21C20.5858 14.75 20.25 14.4142 20.25 14ZM16.333 13.25C15.9188 13.25 15.583 13.5858 15.583 14C15.583 14.4142 15.9188 14.75 16.333 14.75H17.4997C17.9139 14.75 18.2497 14.4142 18.2497 14C18.2497 13.5858 17.9139 13.25 17.4997 13.25H16.333ZM12.083 14C12.083 13.5858 12.4188 13.25 12.833 13.25H13.9997C14.4139 13.25 14.7497 13.5858 14.7497 14C14.7497 14.4142 14.4139 14.75 13.9997 14.75H12.833C12.4188 14.75 12.083 14.4142 12.083 14ZM9.33301 13.25C8.91879 13.25 8.58301 13.5858 8.58301 14C8.58301 14.4142 8.91879 14.75 9.33301 14.75H10.4997C10.9139 14.75 11.2497 14.4142 11.2497 14C11.2497 13.5858 10.9139 13.25 10.4997 13.25H9.33301Z" fill="white"/>
</svg>
